<svg xmlns="http://www.w3.org/2000/svg" width="1200" height="680"><rect width="100%" height="100%" fill="white"/><g transform="translate(0 0)"><text x="8" y="24" font-size="14" font-family="sans-serif">target</text><g transform="translate(0 30)"><svg width="300" height="300" viewBox="0 0 400 400" role="img" aria-label="선택한 캐릭터 그리기 도해" class="h-full w-full" data-testid="original-guide"><path data-line="body" d="M118 214 C118 127 282 127 282 214 C282 296 118 296 118 214 Z" stroke="#34314b" stroke-width="3" stroke-linejoin="round" stroke-linecap="round" fill="#6f994d"></path><path data-line="mark" d="M200 148.75 Q171 91 222 68 Q250 106 200 148.75 Z" stroke="#34314b" stroke-width="3" stroke-linejoin="round" stroke-linecap="round" fill="#c27822"></path><path data-line="arm-left" d="M121 219 Q97 240 120 250" stroke="#34314b" stroke-width="3" stroke-linejoin="round" stroke-linecap="round" fill="none"></path><path data-line="arm-right" d="M279 219 Q303 240 280 250" stroke="#34314b" stroke-width="3" stroke-linejoin="round" stroke-linecap="round" fill="none"></path><path data-line="feet" d="M176 272 L170 311 L150 311 M224 272 L230 311 L250 311" stroke="#34314b" stroke-width="3" stroke-linejoin="round" stroke-linecap="round" fill="none"></path><path data-line="eye-left" d="M169 201 A4 5 0 1 0 177 201 A4 5 0 1 0 169 201" stroke="#34314b" stroke-width="3" stroke-linejoin="round" stroke-linecap="round" fill="#34314b"></path><path data-line="eye-right" d="M223 201 A4 5 0 1 0 231 201 A4 5 0 1 0 223 201" stroke="#34314b" stroke-width="3" stroke-linejoin="round" stroke-linecap="round" fill="#34314b"></path><path data-line="mouth" d="M192 225 Q200 233 208 225" stroke="#34314b" stroke-width="3" stroke-linejoin="round" stroke-linecap="round" fill="none"></path></svg></g></g><g transform="translate(300 0)"><text x="8" y="24" font-size="14" font-family="sans-serif">action 0</text><g transform="translate(0 30)"><svg width="300" height="300" viewBox="0 0 400 400" role="img" aria-label="선택한 캐릭터 그리기 도해" class="h-full w-full" data-testid="original-guide"><path data-line="body" d="M118 214 C118 127 282 127 282 214 C282 296 118 296 118 214 Z" stroke="#34314b" stroke-width="3" stroke-linejoin="round" stroke-linecap="round" fill="none"></path><path data-line="mark" d="M200 148.75 Q171 91 222 68 Q250 106 200 148.75 Z" stroke="#34314b" stroke-width="3" stroke-linejoin="round" stroke-linecap="round" fill="none"></path><path data-line="arm-left" d="M121 219 Q97 240 120 250" stroke="#34314b" stroke-width="3" stroke-linejoin="round" stroke-linecap="round" fill="none"></path><path data-line="arm-right" d="M279 219 Q303 240 280 250" stroke="#34314b" stroke-width="3" stroke-linejoin="round" stroke-linecap="round" fill="none"></path><path data-line="feet" d="M176 272 L170 311 L150 311 M224 272 L230 311 L250 311" stroke="#34314b" stroke-width="3" stroke-linejoin="round" stroke-linecap="round" fill="none"></path><path data-line="eye-left" d="M169 201 A4 5 0 1 0 177 201 A4 5 0 1 0 169 201" stroke="#34314b" stroke-width="3" stroke-linejoin="round" stroke-linecap="round" fill="#34314b"></path><path data-line="eye-right" d="M223 201 A4 5 0 1 0 231 201 A4 5 0 1 0 223 201" stroke="#34314b" stroke-width="3" stroke-linejoin="round" stroke-linecap="round" fill="#34314b"></path><path data-line="mouth" d="M192 225 Q200 233 208 225" stroke="#34314b" stroke-width="3" stroke-linejoin="round" stroke-linecap="round" fill="none"></path></svg></g></g><g transform="translate(600 0)"><text x="8" y="24" font-size="14" font-family="sans-serif">action 1</text><g transform="translate(0 30)"><svg width="300" height="300" viewBox="0 0 400 400" role="img" aria-label="선택한 캐릭터 그리기 도해" class="h-full w-full" data-testid="original-guide"><path data-line="body" d="M118 214 C118 127 282 127 282 214 C282 296 118 296 118 214 Z" stroke="#34314b" stroke-width="3" stroke-linejoin="round" stroke-linecap="round" fill="none"></path><path data-line="mark" d="M200 148.75 Q171 91 222 68 Q250 106 200 148.75 Z" stroke="#34314b" stroke-width="3" stroke-linejoin="round" stroke-linecap="round" fill="none"></path><path data-line="arm-left" d="M121 219 Q97 240 120 250" stroke="#34314b" stroke-width="3" stroke-linejoin="round" stroke-linecap="round" fill="none"></path><path data-line="arm-right" d="M279 219 Q303 240 280 250" stroke="#34314b" stroke-width="3" stroke-linejoin="round" stroke-linecap="round" fill="none"></path><path data-line="feet" d="M176 272 L170 311 L150 311 M224 272 L230 311 L250 311" stroke="#34314b" stroke-width="3" stroke-linejoin="round" stroke-linecap="round" fill="none"></path><path data-line="eye-left" d="M169 201 A4 5 0 1 0 177 201 A4 5 0 1 0 169 201" stroke="#34314b" stroke-width="3" stroke-linejoin="round" stroke-linecap="round" fill="#34314b"></path><path data-line="eye-right" d="M223 201 A4 5 0 1 0 231 201 A4 5 0 1 0 223 201" stroke="#34314b" stroke-width="3" stroke-linejoin="round" stroke-linecap="round" fill="#34314b"></path><path data-line="mouth" d="M192 225 Q200 233 208 225" stroke="#34314b" stroke-width="3" stroke-linejoin="round" stroke-linecap="round" fill="none"></path></svg></g></g><g transform="translate(900 0)"><text x="8" y="24" font-size="14" font-family="sans-serif">action 2</text><g transform="translate(0 30)"><svg width="300" height="300" viewBox="0 0 400 400" role="img" aria-label="선택한 캐릭터 그리기 도해" class="h-full w-full" data-testid="original-guide"><path data-line="body" d="M118 214 C118 127 282 127 282 214 C282 296 118 296 118 214 Z" stroke="#34314b" stroke-width="3" stroke-linejoin="round" stroke-linecap="round" fill="#6f994d"></path><path data-line="mark" d="M200 148.75 Q171 91 222 68 Q250 106 200 148.75 Z" stroke="#34314b" stroke-width="3" stroke-linejoin="round" stroke-linecap="round" fill="none"></path><path data-line="arm-left" d="M121 219 Q97 240 120 250" stroke="#34314b" stroke-width="3" stroke-linejoin="round" stroke-linecap="round" fill="none"></path><path data-line="arm-right" d="M279 219 Q303 240 280 250" stroke="#34314b" stroke-width="3" stroke-linejoin="round" stroke-linecap="round" fill="none"></path><path data-line="feet" d="M176 272 L170 311 L150 311 M224 272 L230 311 L250 311" stroke="#34314b" stroke-width="3" stroke-linejoin="round" stroke-linecap="round" fill="none"></path><path data-line="eye-left" d="M169 201 A4 5 0 1 0 177 201 A4 5 0 1 0 169 201" stroke="#34314b" stroke-width="3" stroke-linejoin="round" stroke-linecap="round" fill="#34314b"></path><path data-line="eye-right" d="M223 201 A4 5 0 1 0 231 201 A4 5 0 1 0 223 201" stroke="#34314b" stroke-width="3" stroke-linejoin="round" stroke-linecap="round" fill="#34314b"></path><path data-line="mouth" d="M192 225 Q200 233 208 225" stroke="#34314b" stroke-width="3" stroke-linejoin="round" stroke-linecap="round" fill="none"></path></svg></g></g><g transform="translate(0 340)"><text x="8" y="24" font-size="14" font-family="sans-serif">action 3</text><g transform="translate(0 30)"><svg width="300" height="300" viewBox="0 0 400 400" role="img" aria-label="선택한 캐릭터 그리기 도해" class="h-full w-full" data-testid="original-guide"><path data-line="body" d="M118 214 C118 127 282 127 282 214 C282 296 118 296 118 214 Z" stroke="#34314b" stroke-width="3" stroke-linejoin="round" stroke-linecap="round" fill="#6f994d"></path><path data-line="mark" d="M200 148.75 Q171 91 222 68 Q250 106 200 148.75 Z" stroke="#34314b" stroke-width="3" stroke-linejoin="round" stroke-linecap="round" fill="#c27822"></path><path data-line="arm-left" d="M121 219 Q97 240 120 250" stroke="#34314b" stroke-width="3" stroke-linejoin="round" stroke-linecap="round" fill="none"></path><path data-line="arm-right" d="M279 219 Q303 240 280 250" stroke="#34314b" stroke-width="3" stroke-linejoin="round" stroke-linecap="round" fill="none"></path><path data-line="feet" d="M176 272 L170 311 L150 311 M224 272 L230 311 L250 311" stroke="#34314b" stroke-width="3" stroke-linejoin="round" stroke-linecap="round" fill="none"></path><path data-line="eye-left" d="M169 201 A4 5 0 1 0 177 201 A4 5 0 1 0 169 201" stroke="#34314b" stroke-width="3" stroke-linejoin="round" stroke-linecap="round" fill="#34314b"></path><path data-line="eye-right" d="M223 201 A4 5 0 1 0 231 201 A4 5 0 1 0 223 201" stroke="#34314b" stroke-width="3" stroke-linejoin="round" stroke-linecap="round" fill="#34314b"></path><path data-line="mouth" d="M192 225 Q200 233 208 225" stroke="#34314b" stroke-width="3" stroke-linejoin="round" stroke-linecap="round" fill="none"></path></svg></g></g><g transform="translate(300 340)"><text x="8" y="24" font-size="14" font-family="sans-serif">action 4</text><g transform="translate(0 30)"><svg width="300" height="300" viewBox="0 0 400 400" role="img" aria-label="선택한 캐릭터 그리기 도해" class="h-full w-full" data-testid="original-guide"><path data-line="body" d="M118 214 C118 127 282 127 282 214 C282 296 118 296 118 214 Z" stroke="#34314b" stroke-width="3" stroke-linejoin="round" stroke-linecap="round" fill="#6f994d"></path><path data-line="mark" d="M200 148.75 Q171 91 222 68 Q250 106 200 148.75 Z" stroke="#34314b" stroke-width="3" stroke-linejoin="round" stroke-linecap="round" fill="#c27822"></path><path data-line="arm-left" d="M121 219 Q97 240 120 250" stroke="#34314b" stroke-width="3" stroke-linejoin="round" stroke-linecap="round" fill="none"></path><path data-line="arm-right" d="M279 219 Q303 240 280 250" stroke="#34314b" stroke-width="3" stroke-linejoin="round" stroke-linecap="round" fill="none"></path><path data-line="feet" d="M176 272 L170 311 L150 311 M224 272 L230 311 L250 311" stroke="#34314b" stroke-width="3" stroke-linejoin="round" stroke-linecap="round" fill="none"></path><path data-line="eye-left" d="M169 201 A4 5 0 1 0 177 201 A4 5 0 1 0 169 201" stroke="#34314b" stroke-width="3" stroke-linejoin="round" stroke-linecap="round" fill="#34314b"></path><path data-line="eye-right" d="M223 201 A4 5 0 1 0 231 201 A4 5 0 1 0 223 201" stroke="#34314b" stroke-width="3" stroke-linejoin="round" stroke-linecap="round" fill="#34314b"></path><path data-line="mouth" d="M192 225 Q200 233 208 225" stroke="#34314b" stroke-width="3" stroke-linejoin="round" stroke-linecap="round" fill="none"></path></svg></g></g><g transform="translate(600 340)"><text x="8" y="24" font-size="14" font-family="sans-serif">easy</text><g transform="translate(0 30)"><svg width="300" height="300" viewBox="0 0 400 400" role="img" aria-label="선택한 캐릭터 그리기 도해" class="h-full w-full" data-testid="original-guide"><path data-line="body" d="M118 214 C118 127 282 127 282 214 C282 296 118 296 118 214 Z" stroke="#34314b" stroke-width="3" stroke-linejoin="round" stroke-linecap="round" fill="#6f994d"></path><path data-line="mark" d="M200 148.75 Q171 91 222 68 Q250 106 200 148.75 Z" stroke="#34314b" stroke-width="3" stroke-linejoin="round" stroke-linecap="round" fill="#c27822"></path></svg></g></g><g transform="translate(900 340)"><text x="8" y="24" font-size="14" font-family="sans-serif">palette 2</text><g transform="translate(0 30)"><svg width="300" height="300" viewBox="0 0 400 400" role="img" aria-label="선택한 캐릭터 그리기 도해" class="h-full w-full" data-testid="original-guide"><path data-line="body" d="M118 214 C118 127 282 127 282 214 C282 296 118 296 118 214 Z" stroke="#34314b" stroke-width="3" stroke-linejoin="round" stroke-linecap="round" fill="#608cc7"></path><path data-line="mark" d="M200 148.75 Q171 91 222 68 Q250 106 200 148.75 Z" stroke="#34314b" stroke-width="3" stroke-linejoin="round" stroke-linecap="round" fill="#c05c79"></path><path data-line="arm-left" d="M121 219 Q97 240 120 250" stroke="#34314b" stroke-width="3" stroke-linejoin="round" stroke-linecap="round" fill="none"></path><path data-line="arm-right" d="M279 219 Q303 240 280 250" stroke="#34314b" stroke-width="3" stroke-linejoin="round" stroke-linecap="round" fill="none"></path><path data-line="feet" d="M176 272 L170 311 L150 311 M224 272 L230 311 L250 311" stroke="#34314b" stroke-width="3" stroke-linejoin="round" stroke-linecap="round" fill="none"></path><path data-line="eye-left" d="M169 201 A4 5 0 1 0 177 201 A4 5 0 1 0 169 201" stroke="#34314b" stroke-width="3" stroke-linejoin="round" stroke-linecap="round" fill="#34314b"></path><path data-line="eye-right" d="M223 201 A4 5 0 1 0 231 201 A4 5 0 1 0 223 201" stroke="#34314b" stroke-width="3" stroke-linejoin="round" stroke-linecap="round" fill="#34314b"></path><path data-line="mouth" d="M192 225 Q200 233 208 225" stroke="#34314b" stroke-width="3" stroke-linejoin="round" stroke-linecap="round" fill="none"></path></svg></g></g></svg>