<svg xmlns="http://www.w3.org/2000/svg" width="1200" height="1350"><rect width="100%" height="100%" fill="white"/><g transform="translate(0 0)"><text x="8" y="25" font-family="sans-serif" font-size="13">D50 example 2 / Original</text><g transform="translate(10 50)"><svg width="380" height="380" viewBox="0 0 400 400" class="h-full w-full" role="img" aria-label="왼쪽을 보는 둥근 얼굴"><defs><marker id="arrow-_R_0_" markerWidth="5" markerHeight="5" refX="3.5" refY="2.5" orient="auto"><path d="M 0 0 L 5 2.5 L 0 5 Z" fill="#bd530c"></path></marker></defs><g><g><path d="M104 210 A96 108 0 1 0 296 210 A96 108 0 1 0 104 210" fill="none" stroke="#161616" stroke-width="3" stroke-linecap="round" stroke-linejoin="round"></path></g><g><path d="M190 196 A4 4 0 1 0 198 196 A4 4 0 1 0 190 196" fill="#161616" stroke="none" stroke-width="3" stroke-linecap="round" stroke-linejoin="round"></path></g><g><path d="M132 196 A4 4 0 1 0 140 196 A4 4 0 1 0 132 196" fill="#161616" stroke="none" stroke-width="3" stroke-linecap="round" stroke-linejoin="round"></path></g><g><path d="M158 222 A4 4 0 1 0 166 222 A4 4 0 1 0 158 222" fill="#161616" stroke="none" stroke-width="3" stroke-linecap="round" stroke-linejoin="round"></path></g><g><path d="M154 247 Q162 255 170 247" fill="none" stroke="#161616" stroke-width="3" stroke-linecap="round" stroke-linejoin="round"></path></g></g></svg></g></g><g transform="translate(400 0)"><text x="8" y="25" font-family="sans-serif" font-size="13">D50 example 2 / Structure / hidden parts</text><g transform="translate(10 50)"><svg width="380" height="380" viewBox="0 0 400 400" role="img" aria-label="덩어리 분석 예시" data-testid="structure-full" class="h-full w-full"><path data-line="head" d="M104 210 A96 108 0 1 0 296 210 A96 108 0 1 0 104 210" fill="none" stroke="#7750c4" stroke-width="3" stroke-linecap="round" stroke-linejoin="round"></path><path data-line="center" d="M200 102 Q124 210 200 318" fill="none" stroke="#087f8c" stroke-width="3" stroke-linecap="round" stroke-linejoin="round"></path><path data-line="nose" d="M158 222 A4 4 0 1 0 166 222 A4 4 0 1 0 158 222" fill="#7750c4" stroke="none" stroke-width="3" stroke-linecap="round" stroke-linejoin="round"></path><path data-line="near-eye" d="M190 196 A4 4 0 1 0 198 196 A4 4 0 1 0 190 196" fill="#7750c4" stroke="none" stroke-width="3" stroke-linecap="round" stroke-linejoin="round"></path><path data-line="far-eye" d="M132 196 A4 4 0 1 0 140 196 A4 4 0 1 0 132 196" fill="#7750c4" stroke="none" stroke-width="3" stroke-linecap="round" stroke-linejoin="round"></path></svg></g></g><g transform="translate(800 0)"><text x="8" y="25" font-family="sans-serif" font-size="13">D50 example 2 / Easy guide</text><g transform="translate(10 50)"><svg width="380" height="380" viewBox="0 0 400 400" role="img" aria-label="덩어리 분석 예시" data-testid="structure-easy" class="h-full w-full"><path data-line="near-eye" d="M190 196 A4 4 0 1 0 198 196 A4 4 0 1 0 190 196" fill="#7750c4" stroke="none" stroke-width="3" stroke-linecap="round" stroke-linejoin="round"></path><path data-line="far-eye" d="M132 196 A4 4 0 1 0 140 196 A4 4 0 1 0 132 196" fill="#7750c4" stroke="none" stroke-width="3" stroke-linecap="round" stroke-linejoin="round"></path></svg></g></g><g transform="translate(0 450)"><text x="8" y="25" font-family="sans-serif" font-size="13">D50 example 2 / Action 1</text><g transform="translate(10 50)"><svg width="380" height="380" viewBox="0 0 400 400" role="img" aria-label="덩어리 분석 예시" data-testid="structure-demo" class="h-full w-full"></svg></g></g><g transform="translate(400 450)"><text x="8" y="25" font-family="sans-serif" font-size="13">D50 example 2 / Action 2</text><g transform="translate(10 50)"><svg width="380" height="380" viewBox="0 0 400 400" role="img" aria-label="덩어리 분석 예시" data-testid="structure-demo" class="h-full w-full"><path data-line="head" d="M104 210 A96 108 0 1 0 296 210 A96 108 0 1 0 104 210" fill="none" stroke="#7750c4" stroke-width="3" stroke-linecap="round" stroke-linejoin="round"></path><path data-line="center" d="M200 102 Q124 210 200 318" fill="none" stroke="#087f8c" stroke-width="3" stroke-linecap="round" stroke-linejoin="round"></path></svg></g></g><g transform="translate(800 450)"><text x="8" y="25" font-family="sans-serif" font-size="13">D50 example 2 / Action 3</text><g transform="translate(10 50)"><svg width="380" height="380" viewBox="0 0 400 400" role="img" aria-label="덩어리 분석 예시" data-testid="structure-demo" class="h-full w-full"><path data-line="head" d="M104 210 A96 108 0 1 0 296 210 A96 108 0 1 0 104 210" fill="none" stroke="#7750c4" stroke-width="3" stroke-linecap="round" stroke-linejoin="round"></path><path data-line="center" d="M200 102 Q124 210 200 318" fill="none" stroke="#087f8c" stroke-width="3" stroke-linecap="round" stroke-linejoin="round"></path><path data-line="nose" d="M158 222 A4 4 0 1 0 166 222 A4 4 0 1 0 158 222" fill="#7750c4" stroke="none" stroke-width="3" stroke-linecap="round" stroke-linejoin="round"></path><path data-line="near-eye" d="M190 196 A4 4 0 1 0 198 196 A4 4 0 1 0 190 196" fill="#7750c4" stroke="none" stroke-width="3" stroke-linecap="round" stroke-linejoin="round"></path></svg></g></g><g transform="translate(0 900)"><text x="8" y="25" font-family="sans-serif" font-size="13">D50 example 2 / Action 4</text><g transform="translate(10 50)"><svg width="380" height="380" viewBox="0 0 400 400" role="img" aria-label="덩어리 분석 예시" data-testid="structure-demo" class="h-full w-full"><path data-line="head" d="M104 210 A96 108 0 1 0 296 210 A96 108 0 1 0 104 210" fill="none" stroke="#7750c4" stroke-width="3" stroke-linecap="round" stroke-linejoin="round"></path><path data-line="center" d="M200 102 Q124 210 200 318" fill="none" stroke="#087f8c" stroke-width="3" stroke-linecap="round" stroke-linejoin="round"></path><path data-line="nose" d="M158 222 A4 4 0 1 0 166 222 A4 4 0 1 0 158 222" fill="#7750c4" stroke="none" stroke-width="3" stroke-linecap="round" stroke-linejoin="round"></path><path data-line="near-eye" d="M190 196 A4 4 0 1 0 198 196 A4 4 0 1 0 190 196" fill="#7750c4" stroke="none" stroke-width="3" stroke-linecap="round" stroke-linejoin="round"></path><path data-line="far-eye" d="M132 196 A4 4 0 1 0 140 196 A4 4 0 1 0 132 196" fill="#7750c4" stroke="none" stroke-width="3" stroke-linecap="round" stroke-linejoin="round"></path></svg></g></g><g transform="translate(400 900)"><text x="8" y="25" font-family="sans-serif" font-size="13">D50 example 2 / Action 5</text><g transform="translate(10 50)"><svg width="380" height="380" viewBox="0 0 400 400" role="img" aria-label="덩어리 분석 예시" data-testid="structure-demo" class="h-full w-full"><path data-line="head" d="M104 210 A96 108 0 1 0 296 210 A96 108 0 1 0 104 210" fill="none" stroke="#7750c4" stroke-width="3" stroke-linecap="round" stroke-linejoin="round"></path><path data-line="center" d="M200 102 Q124 210 200 318" fill="none" stroke="#087f8c" stroke-width="3" stroke-linecap="round" stroke-linejoin="round"></path><path data-line="nose" d="M158 222 A4 4 0 1 0 166 222 A4 4 0 1 0 158 222" fill="#7750c4" stroke="none" stroke-width="3" stroke-linecap="round" stroke-linejoin="round"></path><path data-line="near-eye" d="M190 196 A4 4 0 1 0 198 196 A4 4 0 1 0 190 196" fill="#7750c4" stroke="none" stroke-width="3" stroke-linecap="round" stroke-linejoin="round"></path><path data-line="far-eye" d="M132 196 A4 4 0 1 0 140 196 A4 4 0 1 0 132 196" fill="#7750c4" stroke="none" stroke-width="3" stroke-linecap="round" stroke-linejoin="round"></path></svg></g></g></svg>