<svg xmlns="http://www.w3.org/2000/svg" width="1200" height="1350"><rect width="100%" height="100%" fill="white"/><g transform="translate(0 0)"><text x="8" y="25" font-family="sans-serif" font-size="13">D67 / rabbit / main / Baseline</text><g transform="translate(10 50)"><svg width="380" height="380" viewBox="0 0 400 400" role="img" aria-label="캐릭터 기준" class="h-full w-full" data-testid="identity-baseline"><path data-line="head" d="M136 132 A64 54 0 1 0 264 132 A64 54 0 1 0 136 132" fill="none" stroke="#34314b" stroke-width="3" stroke-linecap="round" stroke-linejoin="round"></path><path data-line="ears" d="M150 100 Q126 8 150 14 Q171 20 170 85 M230 85 Q229 20 250 14 Q274 8 250 100" fill="none" stroke="#34314b" stroke-width="3" stroke-linecap="round" stroke-linejoin="round"></path><path data-line="body" d="M171 184 Q151 204 151 247 Q151 280 200 283 Q249 280 249 247 Q249 204 229 184" fill="none" stroke="#34314b" stroke-width="3" stroke-linecap="round" stroke-linejoin="round"></path><path data-line="arm-left" d="M158 207 Q132 231 135 247 Q140 258 152 243" fill="none" stroke="#34314b" stroke-width="3" stroke-linecap="round" stroke-linejoin="round"></path><path data-line="arm-right" d="M242 207 Q268 231 265 247 Q260 258 248 243" fill="none" stroke="#34314b" stroke-width="3" stroke-linecap="round" stroke-linejoin="round"></path><path data-line="foot-left" d="M158 288 A18 10 0 1 0 194 288 A18 10 0 1 0 158 288" fill="none" stroke="#34314b" stroke-width="3" stroke-linecap="round" stroke-linejoin="round"></path><path data-line="foot-right" d="M206 288 A18 10 0 1 0 242 288 A18 10 0 1 0 206 288" fill="none" stroke="#34314b" stroke-width="3" stroke-linecap="round" stroke-linejoin="round"></path><path data-line="eyes-left" d="M175 133 A4 5 0 1 0 183 133 A4 5 0 1 0 175 133" fill="#34314b" stroke="none" stroke-width="3" stroke-linecap="round" stroke-linejoin="round"></path><path data-line="eyes-right" d="M217 133 A4 5 0 1 0 225 133 A4 5 0 1 0 217 133" fill="#34314b" stroke="none" stroke-width="3" stroke-linecap="round" stroke-linejoin="round"></path><path data-line="mouth" d="M190 157 Q200 164 210 157" fill="none" stroke="#34314b" stroke-width="3" stroke-linecap="round" stroke-linejoin="round"></path></svg></g></g><g transform="translate(400 0)"><text x="8" y="25" font-family="sans-serif" font-size="13">D67 / rabbit / main / Target</text><g transform="translate(10 50)"><svg width="380" height="380" viewBox="0 0 400 400" role="img" aria-label="선택한 표정과 자세" class="h-full w-full" data-testid="identity-target"><path data-line="head" d="M136 132 A64 54 0 1 0 264 132 A64 54 0 1 0 136 132" fill="none" stroke="#34314b" stroke-width="3" stroke-linecap="round" stroke-linejoin="round"></path><path data-line="ears" d="M150 100 Q126 8 150 14 Q171 20 170 85 M230 85 Q229 20 250 14 Q274 8 250 100" fill="none" stroke="#34314b" stroke-width="3" stroke-linecap="round" stroke-linejoin="round"></path><path data-line="body" d="M171 184 Q152 208 153 245 Q159 264 206 265 Q247 262 247 238 Q245 207 229 184" fill="none" stroke="#34314b" stroke-width="3" stroke-linecap="round" stroke-linejoin="round"></path><path data-line="arm-left" d="M160 206 Q167 225 188 233" fill="none" stroke="#34314b" stroke-width="3" stroke-linecap="round" stroke-linejoin="round"></path><path data-line="arm-right" d="M240 206 Q232 225 211 233" fill="none" stroke="#34314b" stroke-width="3" stroke-linecap="round" stroke-linejoin="round"></path><path data-line="foot-left" d="M164 250 Q136 253 126 275 Q130 290 150 280 L181 266" fill="none" stroke="#34314b" stroke-width="3" stroke-linecap="round" stroke-linejoin="round"></path><path data-line="foot-right" d="M223 257 Q247 263 273 257 Q290 264 278 277 Q256 287 217 273" fill="none" stroke="#34314b" stroke-width="3" stroke-linecap="round" stroke-linejoin="round"></path><path data-line="eyes-left" d="M175 133 A4 5 0 1 0 183 133 A4 5 0 1 0 175 133" fill="#34314b" stroke="none" stroke-width="3" stroke-linecap="round" stroke-linejoin="round"></path><path data-line="eyes-right" d="M217 133 A4 5 0 1 0 225 133 A4 5 0 1 0 217 133" fill="#34314b" stroke="none" stroke-width="3" stroke-linecap="round" stroke-linejoin="round"></path><path data-line="mouth" d="M190 157 Q200 164 210 157" fill="none" stroke="#34314b" stroke-width="3" stroke-linecap="round" stroke-linejoin="round"></path></svg></g></g><g transform="translate(800 0)"><text x="8" y="25" font-family="sans-serif" font-size="13">D67 / rabbit / main / Easy features</text><g transform="translate(10 50)"><svg width="380" height="380" viewBox="0 0 400 400" role="img" aria-label="특징과 그리는 순서" class="h-full w-full" data-testid="identity-easy"><path data-line="ears" d="M150 100 Q126 8 150 14 Q171 20 170 85 M230 85 Q229 20 250 14 Q274 8 250 100" fill="none" stroke="#7750c4" stroke-width="3" stroke-linecap="round" stroke-linejoin="round"></path><path data-line="eyes-left" d="M175 133 A4 5 0 1 0 183 133 A4 5 0 1 0 175 133" fill="#7750c4" stroke="none" stroke-width="3" stroke-linecap="round" stroke-linejoin="round"></path><path data-line="eyes-right" d="M217 133 A4 5 0 1 0 225 133 A4 5 0 1 0 217 133" fill="#7750c4" stroke="none" stroke-width="3" stroke-linecap="round" stroke-linejoin="round"></path></svg></g></g><g transform="translate(0 450)"><text x="8" y="25" font-family="sans-serif" font-size="13">D67 / rabbit / main / Action 1</text><g transform="translate(10 50)"><svg width="380" height="380" viewBox="0 0 400 400" role="img" aria-label="특징과 그리는 순서" class="h-full w-full" data-testid="identity-demo"></svg></g></g><g transform="translate(400 450)"><text x="8" y="25" font-family="sans-serif" font-size="13">D67 / rabbit / main / Action 2</text><g transform="translate(10 50)"><svg width="380" height="380" viewBox="0 0 400 400" role="img" aria-label="특징과 그리는 순서" class="h-full w-full" data-testid="identity-demo"><path data-line="head" d="M136 132 A64 54 0 1 0 264 132 A64 54 0 1 0 136 132" fill="none" stroke="#34314b" stroke-width="3" stroke-linecap="round" stroke-linejoin="round"></path><path data-line="ears" d="M150 100 Q126 8 150 14 Q171 20 170 85 M230 85 Q229 20 250 14 Q274 8 250 100" fill="none" stroke="#34314b" stroke-width="3" stroke-linecap="round" stroke-linejoin="round"></path></svg></g></g><g transform="translate(800 450)"><text x="8" y="25" font-family="sans-serif" font-size="13">D67 / rabbit / main / Action 3</text><g transform="translate(10 50)"><svg width="380" height="380" viewBox="0 0 400 400" role="img" aria-label="특징과 그리는 순서" class="h-full w-full" data-testid="identity-demo"><path data-line="head" d="M136 132 A64 54 0 1 0 264 132 A64 54 0 1 0 136 132" fill="none" stroke="#34314b" stroke-width="3" stroke-linecap="round" stroke-linejoin="round"></path><path data-line="ears" d="M150 100 Q126 8 150 14 Q171 20 170 85 M230 85 Q229 20 250 14 Q274 8 250 100" fill="none" stroke="#34314b" stroke-width="3" stroke-linecap="round" stroke-linejoin="round"></path><path data-line="body" d="M171 184 Q152 208 153 245 Q159 264 206 265 Q247 262 247 238 Q245 207 229 184" fill="none" stroke="#34314b" stroke-width="3" stroke-linecap="round" stroke-linejoin="round"></path><path data-line="arm-left" d="M160 206 Q167 225 188 233" fill="none" stroke="#34314b" stroke-width="3" stroke-linecap="round" stroke-linejoin="round"></path><path data-line="arm-right" d="M240 206 Q232 225 211 233" fill="none" stroke="#34314b" stroke-width="3" stroke-linecap="round" stroke-linejoin="round"></path><path data-line="foot-left" d="M164 250 Q136 253 126 275 Q130 290 150 280 L181 266" fill="none" stroke="#34314b" stroke-width="3" stroke-linecap="round" stroke-linejoin="round"></path><path data-line="foot-right" d="M223 257 Q247 263 273 257 Q290 264 278 277 Q256 287 217 273" fill="none" stroke="#34314b" stroke-width="3" stroke-linecap="round" stroke-linejoin="round"></path></svg></g></g><g transform="translate(0 900)"><text x="8" y="25" font-family="sans-serif" font-size="13">D67 / rabbit / main / Action 4</text><g transform="translate(10 50)"><svg width="380" height="380" viewBox="0 0 400 400" role="img" aria-label="특징과 그리는 순서" class="h-full w-full" data-testid="identity-demo"><path data-line="head" d="M136 132 A64 54 0 1 0 264 132 A64 54 0 1 0 136 132" fill="none" stroke="#34314b" stroke-width="3" stroke-linecap="round" stroke-linejoin="round"></path><path data-line="ears" d="M150 100 Q126 8 150 14 Q171 20 170 85 M230 85 Q229 20 250 14 Q274 8 250 100" fill="none" stroke="#34314b" stroke-width="3" stroke-linecap="round" stroke-linejoin="round"></path><path data-line="body" d="M171 184 Q152 208 153 245 Q159 264 206 265 Q247 262 247 238 Q245 207 229 184" fill="none" stroke="#34314b" stroke-width="3" stroke-linecap="round" stroke-linejoin="round"></path><path data-line="arm-left" d="M160 206 Q167 225 188 233" fill="none" stroke="#34314b" stroke-width="3" stroke-linecap="round" stroke-linejoin="round"></path><path data-line="arm-right" d="M240 206 Q232 225 211 233" fill="none" stroke="#34314b" stroke-width="3" stroke-linecap="round" stroke-linejoin="round"></path><path data-line="foot-left" d="M164 250 Q136 253 126 275 Q130 290 150 280 L181 266" fill="none" stroke="#34314b" stroke-width="3" stroke-linecap="round" stroke-linejoin="round"></path><path data-line="foot-right" d="M223 257 Q247 263 273 257 Q290 264 278 277 Q256 287 217 273" fill="none" stroke="#34314b" stroke-width="3" stroke-linecap="round" stroke-linejoin="round"></path><path data-line="eyes-left" d="M175 133 A4 5 0 1 0 183 133 A4 5 0 1 0 175 133" fill="#34314b" stroke="none" stroke-width="3" stroke-linecap="round" stroke-linejoin="round"></path><path data-line="eyes-right" d="M217 133 A4 5 0 1 0 225 133 A4 5 0 1 0 217 133" fill="#34314b" stroke="none" stroke-width="3" stroke-linecap="round" stroke-linejoin="round"></path><path data-line="mouth" d="M190 157 Q200 164 210 157" fill="none" stroke="#34314b" stroke-width="3" stroke-linecap="round" stroke-linejoin="round"></path></svg></g></g><g transform="translate(400 900)"><text x="8" y="25" font-family="sans-serif" font-size="13">D67 / rabbit / main / Action 5</text><g transform="translate(10 50)"><svg width="380" height="380" viewBox="0 0 400 400" role="img" aria-label="특징과 그리는 순서" class="h-full w-full" data-testid="identity-demo"><path data-line="head" d="M136 132 A64 54 0 1 0 264 132 A64 54 0 1 0 136 132" fill="none" stroke="#34314b" stroke-width="3" stroke-linecap="round" stroke-linejoin="round"></path><path data-line="ears" d="M150 100 Q126 8 150 14 Q171 20 170 85 M230 85 Q229 20 250 14 Q274 8 250 100" fill="none" stroke="#34314b" stroke-width="3" stroke-linecap="round" stroke-linejoin="round"></path><path data-line="body" d="M171 184 Q152 208 153 245 Q159 264 206 265 Q247 262 247 238 Q245 207 229 184" fill="none" stroke="#34314b" stroke-width="3" stroke-linecap="round" stroke-linejoin="round"></path><path data-line="arm-left" d="M160 206 Q167 225 188 233" fill="none" stroke="#34314b" stroke-width="3" stroke-linecap="round" stroke-linejoin="round"></path><path data-line="arm-right" d="M240 206 Q232 225 211 233" fill="none" stroke="#34314b" stroke-width="3" stroke-linecap="round" stroke-linejoin="round"></path><path data-line="foot-left" d="M164 250 Q136 253 126 275 Q130 290 150 280 L181 266" fill="none" stroke="#34314b" stroke-width="3" stroke-linecap="round" stroke-linejoin="round"></path><path data-line="foot-right" d="M223 257 Q247 263 273 257 Q290 264 278 277 Q256 287 217 273" fill="none" stroke="#34314b" stroke-width="3" stroke-linecap="round" stroke-linejoin="round"></path><path data-line="eyes-left" d="M175 133 A4 5 0 1 0 183 133 A4 5 0 1 0 175 133" fill="#34314b" stroke="none" stroke-width="3" stroke-linecap="round" stroke-linejoin="round"></path><path data-line="eyes-right" d="M217 133 A4 5 0 1 0 225 133 A4 5 0 1 0 217 133" fill="#34314b" stroke="none" stroke-width="3" stroke-linecap="round" stroke-linejoin="round"></path><path data-line="mouth" d="M190 157 Q200 164 210 157" fill="none" stroke="#34314b" stroke-width="3" stroke-linecap="round" stroke-linejoin="round"></path></svg></g></g><g transform="translate(800 900)"><text x="8" y="25" font-family="sans-serif" font-size="13">D67 / rabbit / main / Simplified sitting</text><g transform="translate(10 50)"><svg width="380" height="380" viewBox="0 0 400 400" class="h-full w-full" role="img" aria-label="긴귀 토끼 · 앉기"><defs><marker id="arrow-_R_0_" markerWidth="5" markerHeight="5" refX="3.5" refY="2.5" orient="auto"><path d="M 0 0 L 5 2.5 L 0 5 Z" fill="#bd530c"></path></marker></defs><g><g><path d="M136 132 A64 54 0 1 0 264 132 A64 54 0 1 0 136 132" fill="none" stroke="#161616" stroke-width="3" stroke-linecap="round" stroke-linejoin="round"></path></g><g><path d="M150 100 Q126 8 150 14 Q171 20 170 85 M230 85 Q229 20 250 14 Q274 8 250 100" fill="none" stroke="#161616" stroke-width="3" stroke-linecap="round" stroke-linejoin="round"></path></g><g><path d="M171 184 Q152 208 153 245 Q159 264 206 265 Q247 262 247 238 Q245 207 229 184" fill="none" stroke="#161616" stroke-width="3" stroke-linecap="round" stroke-linejoin="round"></path></g><g><path d="M160 206 Q167 225 188 233" fill="none" stroke="#161616" stroke-width="3" stroke-linecap="round" stroke-linejoin="round"></path></g><g><path d="M240 206 Q232 225 211 233" fill="none" stroke="#161616" stroke-width="3" stroke-linecap="round" stroke-linejoin="round"></path></g><g><path d="M175 133 A4 5 0 1 0 183 133 A4 5 0 1 0 175 133" fill="#161616" stroke="none" stroke-width="3" stroke-linecap="round" stroke-linejoin="round"></path></g><g><path d="M217 133 A4 5 0 1 0 225 133 A4 5 0 1 0 217 133" fill="#161616" stroke="none" stroke-width="3" stroke-linecap="round" stroke-linejoin="round"></path></g><g><path d="M190 157 Q200 164 210 157" fill="none" stroke="#161616" stroke-width="3" stroke-linecap="round" stroke-linejoin="round"></path></g></g></svg></g></g></svg>