<svg xmlns="http://www.w3.org/2000/svg" width="1200" height="1610"><rect width="100%" height="100%" fill="white"/><g transform="translate(0 0)"><text x="12" y="22" font-family="sans-serif" font-size="16">D18 · 첫 병아리 · 보내주신 그림 기준</text><text x="12" y="45" font-family="sans-serif" font-size="16"> · 원본</text><g transform="translate(10 55)"><svg width="380" height="380" viewBox="0 0 400 400" class="h-full w-full" role="img" aria-label="첫 병아리 · 보내주신 그림 기준"><defs><marker id="arrow-_D18-0-refR_0_" markerWidth="5" markerHeight="5" refX="3.5" refY="2.5" orient="auto"><path d="M 0 0 L 5 2.5 L 0 5 Z" fill="#bd530c"></path></marker></defs><g><g><path d="M 200 65 C 132 65 76 142 76 220 C 76 294 109 317 200 317" fill="none" stroke="#161616" stroke-width="3" stroke-linecap="round" stroke-linejoin="round"></path></g><g><path d="M 200 65 C 268 65 324 142 324 220 C 324 294 291 317 200 317" fill="none" stroke="#161616" stroke-width="3" stroke-linecap="round" stroke-linejoin="round"></path></g><g><path d="M 149.5 152 A 6.5 6.5 0 1 0 162.5 152 A 6.5 6.5 0 1 0 149.5 152" fill="#161616" stroke="none" stroke-width="3" stroke-linecap="round" stroke-linejoin="round"></path></g><g><path d="M 237.5 152 A 6.5 6.5 0 1 0 250.5 152 A 6.5 6.5 0 1 0 237.5 152" fill="#161616" stroke="none" stroke-width="3" stroke-linecap="round" stroke-linejoin="round"></path></g><g><path d="M 190 164 L 210 164 L 200 180 Z" fill="none" stroke="#161616" stroke-width="3" stroke-linecap="round" stroke-linejoin="round"></path></g><g><path d="M 98 212 C 86 225 87 241 105 246" fill="none" stroke="#161616" stroke-width="3" stroke-linecap="round" stroke-linejoin="round"></path></g><g><path d="M 302 212 C 314 225 313 241 295 246" fill="none" stroke="#161616" stroke-width="3" stroke-linecap="round" stroke-linejoin="round"></path></g><g><path d="M 162 315 L 162 339" fill="none" stroke="#161616" stroke-width="3" stroke-linecap="round" stroke-linejoin="round"></path></g><g><path d="M 238 315 L 238 339" fill="none" stroke="#161616" stroke-width="3" stroke-linecap="round" stroke-linejoin="round"></path></g><g></g><g></g><g></g><g></g><g></g></g></svg></g></g><g transform="translate(400 0)"><text x="12" y="22" font-family="sans-serif" font-size="16">D18 · 첫 병아리 · 보내주신 그림 기준</text><text x="12" y="45" font-family="sans-serif" font-size="16"> · 시작 연습장</text><g transform="translate(10 55)"><svg width="380" height="380" viewBox="0 0 400 400" class="h-full w-full" role="img" aria-label="모작 위치 도움" data-testid="copy-guide"><g transform="translate(0 0) scale(1)"><g data-testid="copy-provided"></g><g data-testid="copy-anchors"><circle cx="200" cy="65" r="4" fill="#a5541e"></circle><circle cx="200" cy="317" r="4" fill="#a5541e"></circle><circle cx="76" cy="220" r="4" fill="#a5541e"></circle><circle cx="324" cy="220" r="4" fill="#a5541e"></circle></g></g></svg></g></g><g transform="translate(800 0)"><text x="12" y="22" font-family="sans-serif" font-size="16">D18 · 첫 병아리 · 보내주신 그림 기준</text><text x="12" y="45" font-family="sans-serif" font-size="16"> · 더 쉽게</text><g transform="translate(10 55)"><svg width="380" height="380" viewBox="0 0 400 400" class="h-full w-full" role="img" aria-label="모작 위치 도움" data-testid="copy-guide"><g transform="translate(0 0) scale(1)"><g data-testid="copy-provided"><path d="M 200 65 C 132 65 76 142 76 220 C 76 294 109 317 200 317" fill="none" stroke="#a6a1b2" stroke-width="3" stroke-linecap="round" stroke-linejoin="round"></path></g><g data-testid="copy-anchors"><circle cx="200" cy="65" r="4" fill="#a5541e"></circle><circle cx="200" cy="317" r="4" fill="#a5541e"></circle><circle cx="76" cy="220" r="4" fill="#a5541e"></circle><circle cx="324" cy="220" r="4" fill="#a5541e"></circle></g></g></svg></g></g><g transform="translate(0 530)"><text x="12" y="22" font-family="sans-serif" font-size="16">1/5 · 선생님 시범</text><g transform="translate(10 35)"><svg width="380" height="380" viewBox="0 0 400 400" class="h-full w-full" role="img" aria-label="첫 병아리 · 보내주신 그림 기준: 옆 병아리 몸의 꼭대기·바닥·양옆 끝을 봐요. 연습장의 네 점이 몸 크기를 알려줘요."><defs><marker id="arrow-_D18-0-s0R_0_" markerWidth="5" markerHeight="5" refX="3.5" refY="2.5" orient="auto"><path d="M 0 0 L 5 2.5 L 0 5 Z" fill="#bd530c"></path></marker></defs><g transform="translate(0 0) scale(1)"><g></g><g></g><g></g><g></g><g></g><g></g><g></g><g></g><g></g><g><circle cx="200" cy="65" r="5" fill="#bb510c" stroke="white" stroke-width="1.5"></circle></g><g><circle cx="200" cy="317" r="5" fill="#bb510c" stroke="white" stroke-width="1.5"></circle></g><g><circle cx="76" cy="220" r="5" fill="#bb510c" stroke="white" stroke-width="1.5"></circle></g><g><circle cx="324" cy="220" r="5" fill="#bb510c" stroke="white" stroke-width="1.5"></circle></g><g></g></g></svg></g><text x="12" y="428" font-family="sans-serif" font-size="16">옆 병아리 몸의 꼭대기·바닥·양옆 끝을 봐요</text><text x="12" y="451" font-family="sans-serif" font-size="16">. 연습장의 네 점이 몸 크기를 알려줘요.</text></g><g transform="translate(400 530)"><text x="12" y="22" font-family="sans-serif" font-size="16">2/5 · 선생님 시범</text><g transform="translate(10 35)"><svg width="380" height="380" viewBox="0 0 400 400" class="h-full w-full" role="img" aria-label="첫 병아리 · 보내주신 그림 기준: 위 점에서 왼쪽 점을 지나 아래 점까지 둥글게 이어요. 긴 선은 나눠 그려도 돼요."><defs><marker id="arrow-_D18-0-s1R_0_" markerWidth="5" markerHeight="5" refX="3.5" refY="2.5" orient="auto"><path d="M 0 0 L 5 2.5 L 0 5 Z" fill="#bd530c"></path></marker></defs><g transform="translate(0 0) scale(1)"><g><path d="M 200 65 C 132 65 76 142 76 220 C 76 294 109 317 200 317" fill="none" stroke="#7750c4" stroke-width="3" stroke-linecap="round" stroke-linejoin="round"></path><circle cx="200" cy="65" r="5" fill="#bb510c" stroke="white" stroke-width="1.5"></circle><path d="M 200 65 L 179 67" fill="none" stroke="#bd530c" stroke-width="2" marker-end="url(#arrow-_D18-0-s1R_0_)"></path></g><g></g><g></g><g></g><g></g><g></g><g></g><g></g><g></g><g></g><g></g><g></g><g></g><g></g></g></svg></g><text x="12" y="428" font-family="sans-serif" font-size="16">위 점에서 왼쪽 점을 지나 아래 점까지 둥글</text><text x="12" y="451" font-family="sans-serif" font-size="16">게 이어요. 긴 선은 나눠 그려도 돼요.</text></g><g transform="translate(800 530)"><text x="12" y="22" font-family="sans-serif" font-size="16">3/5 · 선생님 시범</text><g transform="translate(10 35)"><svg width="380" height="380" viewBox="0 0 400 400" class="h-full w-full" role="img" aria-label="첫 병아리 · 보내주신 그림 기준: 다시 위 점에서 오른쪽 점을 지나 아래 점에서 만나요. 작은 얼굴보다 몸을 먼저 잡아요."><defs><marker id="arrow-_D18-0-s2R_0_" markerWidth="5" markerHeight="5" refX="3.5" refY="2.5" orient="auto"><path d="M 0 0 L 5 2.5 L 0 5 Z" fill="#bd530c"></path></marker></defs><g transform="translate(0 0) scale(1)"><g><path d="M 200 65 C 132 65 76 142 76 220 C 76 294 109 317 200 317" fill="none" stroke="#c5c1cf" stroke-width="3" stroke-linecap="round" stroke-linejoin="round"></path></g><g><path d="M 200 65 C 268 65 324 142 324 220 C 324 294 291 317 200 317" fill="none" stroke="#7750c4" stroke-width="3" stroke-linecap="round" stroke-linejoin="round"></path><circle cx="200" cy="65" r="5" fill="#bb510c" stroke="white" stroke-width="1.5"></circle><path d="M 200 65 L 221 67" fill="none" stroke="#bd530c" stroke-width="2" marker-end="url(#arrow-_D18-0-s2R_0_)"></path></g><g></g><g></g><g></g><g></g><g></g><g></g><g></g><g></g><g></g><g></g><g></g><g></g></g></svg></g><text x="12" y="428" font-family="sans-serif" font-size="16">다시 위 점에서 오른쪽 점을 지나 아래 점에</text><text x="12" y="451" font-family="sans-serif" font-size="16">서 만나요. 작은 얼굴보다 몸을 먼저 잡아요</text><text x="12" y="474" font-family="sans-serif" font-size="16">.</text></g><g transform="translate(0 1070)"><text x="12" y="22" font-family="sans-serif" font-size="16">4/5 · 선생님 시범</text><g transform="translate(10 35)"><svg width="380" height="380" viewBox="0 0 400 400" class="h-full w-full" role="img" aria-label="첫 병아리 · 보내주신 그림 기준: 몸 위쪽에 눈 두 점, 눈 사이보다 아래에 작은 세모 부리를 옮겨요."><defs><marker id="arrow-_D18-0-s3R_0_" markerWidth="5" markerHeight="5" refX="3.5" refY="2.5" orient="auto"><path d="M 0 0 L 5 2.5 L 0 5 Z" fill="#bd530c"></path></marker></defs><g transform="translate(0 0) scale(1)"><g><path d="M 200 65 C 132 65 76 142 76 220 C 76 294 109 317 200 317" fill="none" stroke="#c5c1cf" stroke-width="3" stroke-linecap="round" stroke-linejoin="round"></path></g><g><path d="M 200 65 C 268 65 324 142 324 220 C 324 294 291 317 200 317" fill="none" stroke="#c5c1cf" stroke-width="3" stroke-linecap="round" stroke-linejoin="round"></path></g><g><path d="M 149.5 152 A 6.5 6.5 0 1 0 162.5 152 A 6.5 6.5 0 1 0 149.5 152" fill="#7750c4" stroke="none" stroke-width="3" stroke-linecap="round" stroke-linejoin="round"></path><circle cx="156" cy="152" r="5" fill="#bb510c" stroke="white" stroke-width="1.5"></circle></g><g><path d="M 237.5 152 A 6.5 6.5 0 1 0 250.5 152 A 6.5 6.5 0 1 0 237.5 152" fill="#7750c4" stroke="none" stroke-width="3" stroke-linecap="round" stroke-linejoin="round"></path><circle cx="244" cy="152" r="5" fill="#bb510c" stroke="white" stroke-width="1.5"></circle></g><g><path d="M 190 164 L 210 164 L 200 180 Z" fill="none" stroke="#7750c4" stroke-width="3" stroke-linecap="round" stroke-linejoin="round"></path><circle cx="190" cy="164" r="5" fill="#bb510c" stroke="white" stroke-width="1.5"></circle><path d="M 190 164 L 203 164" fill="none" stroke="#bd530c" stroke-width="2" marker-end="url(#arrow-_D18-0-s3R_0_)"></path></g><g></g><g></g><g></g><g></g><g></g><g></g><g></g><g></g><g></g></g></svg></g><text x="12" y="428" font-family="sans-serif" font-size="16">몸 위쪽에 눈 두 점, 눈 사이보다 아래에 </text><text x="12" y="451" font-family="sans-serif" font-size="16">작은 세모 부리를 옮겨요.</text></g><g transform="translate(400 1070)"><text x="12" y="22" font-family="sans-serif" font-size="16">5/5 · 선생님 시범</text><g transform="translate(10 35)"><svg width="380" height="380" viewBox="0 0 400 400" class="h-full w-full" role="img" aria-label="첫 병아리 · 보내주신 그림 기준: 원본의 몸과 나란히 봐요. 높이와 폭 중 한 곳만 비교해요. 날개와 다리는 생략해도 돼요."><defs><marker id="arrow-_D18-0-s4R_0_" markerWidth="5" markerHeight="5" refX="3.5" refY="2.5" orient="auto"><path d="M 0 0 L 5 2.5 L 0 5 Z" fill="#bd530c"></path></marker></defs><g transform="translate(0 0) scale(1)"><g><path d="M 200 65 C 132 65 76 142 76 220 C 76 294 109 317 200 317" fill="none" stroke="#c5c1cf" stroke-width="3" stroke-linecap="round" stroke-linejoin="round"></path></g><g><path d="M 200 65 C 268 65 324 142 324 220 C 324 294 291 317 200 317" fill="none" stroke="#c5c1cf" stroke-width="3" stroke-linecap="round" stroke-linejoin="round"></path></g><g><path d="M 149.5 152 A 6.5 6.5 0 1 0 162.5 152 A 6.5 6.5 0 1 0 149.5 152" fill="#c5c1cf" stroke="none" stroke-width="3" stroke-linecap="round" stroke-linejoin="round"></path></g><g><path d="M 237.5 152 A 6.5 6.5 0 1 0 250.5 152 A 6.5 6.5 0 1 0 237.5 152" fill="#c5c1cf" stroke="none" stroke-width="3" stroke-linecap="round" stroke-linejoin="round"></path></g><g><path d="M 190 164 L 210 164 L 200 180 Z" fill="none" stroke="#c5c1cf" stroke-width="3" stroke-linecap="round" stroke-linejoin="round"></path></g><g></g><g></g><g></g><g></g><g></g><g></g><g></g><g></g><g></g></g></svg></g><text x="12" y="428" font-family="sans-serif" font-size="16">원본의 몸과 나란히 봐요. 높이와 폭 중 한</text><text x="12" y="451" font-family="sans-serif" font-size="16"> 곳만 비교해요. 날개와 다리는 생략해도 돼</text><text x="12" y="474" font-family="sans-serif" font-size="16">요.</text></g></svg>