<svg xmlns="http://www.w3.org/2000/svg" width="1200" height="1610"><rect width="100%" height="100%" fill="white"/><g transform="translate(0 0)"><text x="12" y="22" font-family="sans-serif" font-size="16">D24 · 달걀 몸 펭귄 · 원본</text><g transform="translate(10 55)"><svg width="380" height="380" viewBox="0 0 400 400" class="h-full w-full" role="img" aria-label="달걀 몸 펭귄"><defs><marker id="arrow-_D24-0-refR_0_" markerWidth="5" markerHeight="5" refX="3.5" refY="2.5" orient="auto"><path d="M 0 0 L 5 2.5 L 0 5 Z" fill="#bd530c"></path></marker></defs><g><g><path d="M200 72 C135 72 100 169 100 258 C100 310 136 330 200 330" fill="none" stroke="#161616" stroke-width="3" stroke-linecap="round" stroke-linejoin="round"></path></g><g><path d="M200 72 C265 72 300 169 300 258 C300 310 264 330 200 330" fill="none" stroke="#161616" stroke-width="3" stroke-linecap="round" stroke-linejoin="round"></path></g><g><path d="M200 190 C163 190 134 214 134 245 C134 276 163 300 200 300 C237 300 266 276 266 245 C266 214 237 190 200 190" fill="none" stroke="#161616" stroke-width="3" stroke-linecap="round" stroke-linejoin="round"></path></g><g><path d="M160 148 a5 5 0 1 0 10 0 a5 5 0 1 0 -10 0" fill="#161616" stroke="none" stroke-width="3" stroke-linecap="round" stroke-linejoin="round"></path></g><g><path d="M230 148 a5 5 0 1 0 10 0 a5 5 0 1 0 -10 0" fill="#161616" stroke="none" stroke-width="3" stroke-linecap="round" stroke-linejoin="round"></path></g><g><path d="M190 168 H210 L200 180 Z" fill="none" stroke="#161616" stroke-width="3" stroke-linecap="round" stroke-linejoin="round"></path></g></g></svg></g></g><g transform="translate(400 0)"><text x="12" y="22" font-family="sans-serif" font-size="16">D24 · 달걀 몸 펭귄 · 시작 연습장</text><g transform="translate(10 55)"><svg width="380" height="380" viewBox="0 0 400 400" class="h-full w-full" role="img" aria-label="모작 위치 도움" data-testid="copy-guide"><g transform="translate(0 0) scale(1)"><g data-testid="copy-provided"></g><g data-testid="copy-anchors"></g></g></svg></g></g><g transform="translate(800 0)"><text x="12" y="22" font-family="sans-serif" font-size="16">D24 · 달걀 몸 펭귄 · 더 쉽게</text><g transform="translate(10 55)"><svg width="380" height="380" viewBox="0 0 400 400" class="h-full w-full" role="img" aria-label="모작 위치 도움" data-testid="copy-guide"><g transform="translate(0 0) scale(1)"><g data-testid="copy-provided"><path d="M200 190 C163 190 134 214 134 245 C134 276 163 300 200 300 C237 300 266 276 266 245 C266 214 237 190 200 190" fill="none" stroke="#a6a1b2" stroke-width="3" stroke-linecap="round" stroke-linejoin="round"></path></g><g data-testid="copy-anchors"></g></g></svg></g></g><g transform="translate(0 530)"><text x="12" y="22" font-family="sans-serif" font-size="16">1/5 · 선생님 시범</text><g transform="translate(10 35)"><svg width="380" height="380" viewBox="0 0 400 400" class="h-full w-full" role="img" aria-label="달걀 몸 펭귄: 배 모양 옆에 남은 빈 공간을 봐요. 배를 바깥 몸에 꽉 붙이지 않는 것이 오늘 목표예요."><defs><marker id="arrow-_D24-0-s0R_0_" markerWidth="5" markerHeight="5" refX="3.5" refY="2.5" orient="auto"><path d="M 0 0 L 5 2.5 L 0 5 Z" fill="#bd530c"></path></marker></defs><g transform="translate(0 0) scale(1)"><g></g><g></g><g></g><g></g><g></g><g></g></g></svg></g><text x="12" y="428" font-family="sans-serif" font-size="16">배 모양 옆에 남은 빈 공간을 봐요. 배를 </text><text x="12" y="451" font-family="sans-serif" font-size="16">바깥 몸에 꽉 붙이지 않는 것이 오늘 목표예</text><text x="12" y="474" font-family="sans-serif" font-size="16">요.</text></g><g transform="translate(400 530)"><text x="12" y="22" font-family="sans-serif" font-size="16">2/5 · 선생님 시범</text><g transform="translate(10 35)"><svg width="380" height="380" viewBox="0 0 400 400" class="h-full w-full" role="img" aria-label="달걀 몸 펭귄: 먼저 큰 몸 바깥을 위에서 왼쪽으로, 다시 위에서 오른쪽으로 그려 닫아요."><defs><marker id="arrow-_D24-0-s1R_0_" markerWidth="5" markerHeight="5" refX="3.5" refY="2.5" orient="auto"><path d="M 0 0 L 5 2.5 L 0 5 Z" fill="#bd530c"></path></marker></defs><g transform="translate(0 0) scale(1)"><g><path d="M200 72 C135 72 100 169 100 258 C100 310 136 330 200 330" fill="none" stroke="#7750c4" stroke-width="3" stroke-linecap="round" stroke-linejoin="round"></path><circle cx="200" cy="72" r="5" fill="#bb510c" stroke="white" stroke-width="1.5"></circle><path d="M 200 72 L 172 72" fill="none" stroke="#bd530c" stroke-width="2" marker-end="url(#arrow-_D24-0-s1R_0_)"></path></g><g><path d="M200 72 C265 72 300 169 300 258 C300 310 264 330 200 330" fill="none" stroke="#7750c4" stroke-width="3" stroke-linecap="round" stroke-linejoin="round"></path><circle cx="200" cy="72" r="5" fill="#bb510c" stroke="white" stroke-width="1.5"></circle><path d="M 200 72 L 228 72" fill="none" stroke="#bd530c" stroke-width="2" marker-end="url(#arrow-_D24-0-s1R_0_)"></path></g><g></g><g></g><g></g><g></g></g></svg></g><text x="12" y="428" font-family="sans-serif" font-size="16">먼저 큰 몸 바깥을 위에서 왼쪽으로, 다시 </text><text x="12" y="451" font-family="sans-serif" font-size="16">위에서 오른쪽으로 그려 닫아요.</text></g><g transform="translate(800 530)"><text x="12" y="22" font-family="sans-serif" font-size="16">3/5 · 선생님 시범</text><g transform="translate(10 35)"><svg width="380" height="380" viewBox="0 0 400 400" class="h-full w-full" role="img" aria-label="달걀 몸 펭귄: 안쪽 배의 위·아래 자리를 정해요. 바깥선과 사이를 남기며 둥근 배를 그려요."><defs><marker id="arrow-_D24-0-s2R_0_" markerWidth="5" markerHeight="5" refX="3.5" refY="2.5" orient="auto"><path d="M 0 0 L 5 2.5 L 0 5 Z" fill="#bd530c"></path></marker></defs><g transform="translate(0 0) scale(1)"><g><path d="M200 72 C135 72 100 169 100 258 C100 310 136 330 200 330" fill="none" stroke="#c5c1cf" stroke-width="3" stroke-linecap="round" stroke-linejoin="round"></path></g><g><path d="M200 72 C265 72 300 169 300 258 C300 310 264 330 200 330" fill="none" stroke="#c5c1cf" stroke-width="3" stroke-linecap="round" stroke-linejoin="round"></path></g><g><path d="M200 190 C163 190 134 214 134 245 C134 276 163 300 200 300 C237 300 266 276 266 245 C266 214 237 190 200 190" fill="none" stroke="#7750c4" stroke-width="3" stroke-linecap="round" stroke-linejoin="round"></path><circle cx="200" cy="190" r="5" fill="#bb510c" stroke="white" stroke-width="1.5"></circle><path d="M 200 190 L 175 190" fill="none" stroke="#bd530c" stroke-width="2" marker-end="url(#arrow-_D24-0-s2R_0_)"></path></g><g></g><g></g><g></g></g></svg></g><text x="12" y="428" font-family="sans-serif" font-size="16">안쪽 배의 위·아래 자리를 정해요. 바깥선과</text><text x="12" y="451" font-family="sans-serif" font-size="16"> 사이를 남기며 둥근 배를 그려요.</text></g><g transform="translate(0 1070)"><text x="12" y="22" font-family="sans-serif" font-size="16">4/5 · 선생님 시범</text><g transform="translate(10 35)"><svg width="380" height="380" viewBox="0 0 400 400" class="h-full w-full" role="img" aria-label="달걀 몸 펭귄: 배 위쪽에 눈 두 점과 부리를 넣어요. 얼굴보다 양옆 빈 공간을 먼저 살펴요."><defs><marker id="arrow-_D24-0-s3R_0_" markerWidth="5" markerHeight="5" refX="3.5" refY="2.5" orient="auto"><path d="M 0 0 L 5 2.5 L 0 5 Z" fill="#bd530c"></path></marker></defs><g transform="translate(0 0) scale(1)"><g><path d="M200 72 C135 72 100 169 100 258 C100 310 136 330 200 330" fill="none" stroke="#c5c1cf" stroke-width="3" stroke-linecap="round" stroke-linejoin="round"></path></g><g><path d="M200 72 C265 72 300 169 300 258 C300 310 264 330 200 330" fill="none" stroke="#c5c1cf" stroke-width="3" stroke-linecap="round" stroke-linejoin="round"></path></g><g><path d="M200 190 C163 190 134 214 134 245 C134 276 163 300 200 300 C237 300 266 276 266 245 C266 214 237 190 200 190" fill="none" stroke="#c5c1cf" stroke-width="3" stroke-linecap="round" stroke-linejoin="round"></path></g><g><path d="M160 148 a5 5 0 1 0 10 0 a5 5 0 1 0 -10 0" fill="#7750c4" stroke="none" stroke-width="3" stroke-linecap="round" stroke-linejoin="round"></path><circle cx="165" cy="148" r="5" fill="#bb510c" stroke="white" stroke-width="1.5"></circle></g><g><path d="M230 148 a5 5 0 1 0 10 0 a5 5 0 1 0 -10 0" fill="#7750c4" stroke="none" stroke-width="3" stroke-linecap="round" stroke-linejoin="round"></path><circle cx="235" cy="148" r="5" fill="#bb510c" stroke="white" stroke-width="1.5"></circle></g><g><path d="M190 168 H210 L200 180 Z" fill="none" stroke="#7750c4" stroke-width="3" stroke-linecap="round" stroke-linejoin="round"></path><circle cx="190" cy="168" r="5" fill="#bb510c" stroke="white" stroke-width="1.5"></circle><path d="M 190 168 L 208 168" fill="none" stroke="#bd530c" stroke-width="2" marker-end="url(#arrow-_D24-0-s3R_0_)"></path></g></g></svg></g><text x="12" y="428" font-family="sans-serif" font-size="16">배 위쪽에 눈 두 점과 부리를 넣어요. 얼굴</text><text x="12" y="451" font-family="sans-serif" font-size="16">보다 양옆 빈 공간을 먼저 살펴요.</text></g><g transform="translate(400 1070)"><text x="12" y="22" font-family="sans-serif" font-size="16">5/5 · 선생님 시범</text><g transform="translate(10 35)"><svg width="380" height="380" viewBox="0 0 400 400" class="h-full w-full" role="img" aria-label="달걀 몸 펭귄: 배와 몸 사이 왼쪽·오른쪽 공간을 원본과 비교해요. 완벽한 대칭은 필요 없어요."><defs><marker id="arrow-_D24-0-s4R_0_" markerWidth="5" markerHeight="5" refX="3.5" refY="2.5" orient="auto"><path d="M 0 0 L 5 2.5 L 0 5 Z" fill="#bd530c"></path></marker></defs><g transform="translate(0 0) scale(1)"><g><path d="M200 72 C135 72 100 169 100 258 C100 310 136 330 200 330" fill="none" stroke="#c5c1cf" stroke-width="3" stroke-linecap="round" stroke-linejoin="round"></path></g><g><path d="M200 72 C265 72 300 169 300 258 C300 310 264 330 200 330" fill="none" stroke="#c5c1cf" stroke-width="3" stroke-linecap="round" stroke-linejoin="round"></path></g><g><path d="M200 190 C163 190 134 214 134 245 C134 276 163 300 200 300 C237 300 266 276 266 245 C266 214 237 190 200 190" fill="none" stroke="#c5c1cf" stroke-width="3" stroke-linecap="round" stroke-linejoin="round"></path></g><g><path d="M160 148 a5 5 0 1 0 10 0 a5 5 0 1 0 -10 0" fill="#c5c1cf" stroke="none" stroke-width="3" stroke-linecap="round" stroke-linejoin="round"></path></g><g><path d="M230 148 a5 5 0 1 0 10 0 a5 5 0 1 0 -10 0" fill="#c5c1cf" stroke="none" stroke-width="3" stroke-linecap="round" stroke-linejoin="round"></path></g><g><path d="M190 168 H210 L200 180 Z" fill="none" stroke="#c5c1cf" stroke-width="3" stroke-linecap="round" stroke-linejoin="round"></path></g></g></svg></g><text x="12" y="428" font-family="sans-serif" font-size="16">배와 몸 사이 왼쪽·오른쪽 공간을 원본과 비</text><text x="12" y="451" font-family="sans-serif" font-size="16">교해요. 완벽한 대칭은 필요 없어요.</text></g></svg>