<svg xmlns="http://www.w3.org/2000/svg" width="1200" height="1800"><rect width="100%" height="100%" fill="white"/><text x="12" y="22" font-family="sans-serif" font-size="16">D39 · 넓은 얼굴 곰 인형 · 기본</text><g transform="translate(10 55)"><svg width="380" height="380" viewBox="0 0 400 400" class="h-full w-full" role="img" aria-label="넓은 얼굴 곰 인형"><defs><marker id="arrow-_refR_0_" markerWidth="5" markerHeight="5" refX="3.5" refY="2.5" orient="auto"><path d="M 0 0 L 5 2.5 L 0 5 Z" fill="#bd530c"></path></marker></defs><g><g><path d="M200 212 C124.19 212 124.19 342 200 342 C275.81 342 275.81 212 200 212" fill="none" stroke="#161616" stroke-width="3" stroke-linecap="round" stroke-linejoin="round"></path></g><g><path d="M149 244 C112 246 109 279 129 286 C143 290 157 265 149 244" fill="none" stroke="#161616" stroke-width="3" stroke-linecap="round" stroke-linejoin="round"></path></g><g><path d="M251 244 C288 246 291 279 271 286 C257 290 243 265 251 244" fill="none" stroke="#161616" stroke-width="3" stroke-linecap="round" stroke-linejoin="round"></path></g><g><path d="M166 325 C143 350 163 365 183 347" fill="none" stroke="#161616" stroke-width="3" stroke-linecap="round" stroke-linejoin="round"></path></g><g><path d="M234 325 C257 350 237 365 217 347" fill="none" stroke="#161616" stroke-width="3" stroke-linecap="round" stroke-linejoin="round"></path></g><g><path d="M135.2 127.97482655004782 C88 92 126 58 164.0 101.30642496536481" fill="none" stroke="#161616" stroke-width="3" stroke-linecap="round" stroke-linejoin="round"></path></g><g><path d="M264.8 127.97482655004782 C312 92 274 58 236.0 101.30642496536481" fill="none" stroke="#161616" stroke-width="3" stroke-linecap="round" stroke-linejoin="round"></path></g><g><path d="M200 93 C104.24 93 104.24 217 200 217 C295.76 217 295.76 93 200 93" fill="none" stroke="#161616" stroke-width="3" stroke-linecap="round" stroke-linejoin="round"></path></g><g><path d="M173 150 a4 4 0 1 0 8 0 a4 4 0 1 0 -8 0" fill="#161616" stroke="none" stroke-width="3" stroke-linecap="round" stroke-linejoin="round"></path></g><g><path d="M219 150 a4 4 0 1 0 8 0 a4 4 0 1 0 -8 0" fill="#161616" stroke="none" stroke-width="3" stroke-linecap="round" stroke-linejoin="round"></path></g><g><path d="M188 177 Q200 185 212 177" fill="none" stroke="#161616" stroke-width="3" stroke-linecap="round" stroke-linejoin="round"></path></g></g></svg></g><g transform="translate(400 0)"><text x="12" y="22" font-family="sans-serif" font-size="16">변형 · 머리 크기</text><g transform="translate(10 55)"><svg width="380" height="380" viewBox="0 0 400 400" class="h-full w-full" role="img" aria-label="넓은 얼굴 곰 인형 · 머리 크기"><defs><marker id="arrow-_targetR_0_" markerWidth="5" markerHeight="5" refX="3.5" refY="2.5" orient="auto"><path d="M 0 0 L 5 2.5 L 0 5 Z" fill="#bd530c"></path></marker></defs><g><g><path d="M200 212 C124.19 212 124.19 342 200 342 C275.81 342 275.81 212 200 212" fill="none" stroke="#161616" stroke-width="3" stroke-linecap="round" stroke-linejoin="round"></path></g><g><path d="M149 244 C112 246 109 279 129 286 C143 290 157 265 149 244" fill="none" stroke="#161616" stroke-width="3" stroke-linecap="round" stroke-linejoin="round"></path></g><g><path d="M251 244 C288 246 291 279 271 286 C257 290 243 265 251 244" fill="none" stroke="#161616" stroke-width="3" stroke-linecap="round" stroke-linejoin="round"></path></g><g><path d="M166 325 C143 350 163 365 183 347" fill="none" stroke="#161616" stroke-width="3" stroke-linecap="round" stroke-linejoin="round"></path></g><g><path d="M234 325 C257 350 237 365 217 347" fill="none" stroke="#161616" stroke-width="3" stroke-linecap="round" stroke-linejoin="round"></path></g><g><path d="M 200 81.84 C 87.0032 81.84 87.0032 228.16 200 228.16 C 312.997 228.16 312.997 81.84 200 81.84" fill="none" stroke="#161616" stroke-width="3" stroke-linecap="round" stroke-linejoin="round"></path></g><g><path d="M 123.536 123.11 C 67.84 80.66 112.68 40.54 157.52 91.6416" fill="none" stroke="#161616" stroke-width="3" stroke-linecap="round" stroke-linejoin="round"></path></g><g><path d="M 276.464 123.11 C 332.16 80.66 287.32 40.54 242.48 91.6416" fill="none" stroke="#161616" stroke-width="3" stroke-linecap="round" stroke-linejoin="round"></path></g><g><path d="M168.86 149.1 a4 4 0 1 0 8 0 a4 4 0 1 0 -8 0" fill="#161616" stroke="none" stroke-width="3" stroke-linecap="round" stroke-linejoin="round"></path></g><g><path d="M223.14 149.1 a4 4 0 1 0 8 0 a4 4 0 1 0 -8 0" fill="#161616" stroke="none" stroke-width="3" stroke-linecap="round" stroke-linejoin="round"></path></g><g><path d="M 185.84 180.96 Q 200 190.4 214.16 180.96" fill="none" stroke="#161616" stroke-width="3" stroke-linecap="round" stroke-linejoin="round"></path></g></g></svg></g><text x="12" y="445" font-family="sans-serif" font-size="16">바꿀 것: 귀·눈·입을 포함한 머리 크기</text></g><g transform="translate(800 0)"><text x="12" y="22" font-family="sans-serif" font-size="16">더 쉽게 · trace</text><g transform="translate(10 55)"><svg width="380" height="380" viewBox="0 0 400 400" class="h-full w-full" role="img" aria-label="변형 연습 도움" data-testid="variation-easy"><path data-line="body" d="M200 212 C124.19 212 124.19 342 200 342 C275.81 342 275.81 212 200 212" fill="none" stroke="#b4afc0" stroke-width="3" stroke-linecap="round" stroke-linejoin="round"></path><path data-line="armL" d="M149 244 C112 246 109 279 129 286 C143 290 157 265 149 244" fill="none" stroke="#b4afc0" stroke-width="3" stroke-linecap="round" stroke-linejoin="round"></path><path data-line="armR" d="M251 244 C288 246 291 279 271 286 C257 290 243 265 251 244" fill="none" stroke="#b4afc0" stroke-width="3" stroke-linecap="round" stroke-linejoin="round"></path><path data-line="legL" d="M166 325 C143 350 163 365 183 347" fill="none" stroke="#b4afc0" stroke-width="3" stroke-linecap="round" stroke-linejoin="round"></path><path data-line="legR" d="M234 325 C257 350 237 365 217 347" fill="none" stroke="#b4afc0" stroke-width="3" stroke-linecap="round" stroke-linejoin="round"></path><path data-line="head" d="M 200 81.84 C 87.0032 81.84 87.0032 228.16 200 228.16 C 312.997 228.16 312.997 81.84 200 81.84" fill="none" stroke="#b4afc0" stroke-width="3" stroke-linecap="round" stroke-linejoin="round"></path><path data-line="earL" d="M 123.536 123.11 C 67.84 80.66 112.68 40.54 157.52 91.6416" fill="none" stroke="#b4afc0" stroke-width="3" stroke-linecap="round" stroke-linejoin="round"></path><path data-line="earR" d="M 276.464 123.11 C 332.16 80.66 287.32 40.54 242.48 91.6416" fill="none" stroke="#b4afc0" stroke-width="3" stroke-linecap="round" stroke-linejoin="round"></path><path data-line="eyeL" d="M168.86 149.1 a4 4 0 1 0 8 0 a4 4 0 1 0 -8 0" fill="#6e6680" stroke="none" stroke-width="3" stroke-linecap="round" stroke-linejoin="round"></path><path data-line="eyeR" d="M223.14 149.1 a4 4 0 1 0 8 0 a4 4 0 1 0 -8 0" fill="#6e6680" stroke="none" stroke-width="3" stroke-linecap="round" stroke-linejoin="round"></path><path data-line="mouth" d="M 185.84 180.96 Q 200 190.4 214.16 180.96" fill="none" stroke="#b4afc0" stroke-width="3" stroke-linecap="round" stroke-linejoin="round"></path></svg></g><text x="12" y="445" font-family="sans-serif" font-size="16">유지: 몸·팔·다리 위치</text></g><g transform="translate(0 580)"><text x="12" y="22" font-family="sans-serif" font-size="16">1/5 · look</text><g transform="translate(10 45)"><svg width="380" height="380" viewBox="0 0 400 400" class="h-full w-full" role="img" aria-label="한 부분 변형 시범" data-testid="variation-demo"><path data-line="body" d="M200 212 C124.19 212 124.19 342 200 342 C275.81 342 275.81 212 200 212" fill="none" stroke="#b4afc0" stroke-width="3" stroke-linecap="round" stroke-linejoin="round"></path><path data-line="armL" d="M149 244 C112 246 109 279 129 286 C143 290 157 265 149 244" fill="none" stroke="#b4afc0" stroke-width="3" stroke-linecap="round" stroke-linejoin="round"></path><path data-line="armR" d="M251 244 C288 246 291 279 271 286 C257 290 243 265 251 244" fill="none" stroke="#b4afc0" stroke-width="3" stroke-linecap="round" stroke-linejoin="round"></path><path data-line="legL" d="M166 325 C143 350 163 365 183 347" fill="none" stroke="#b4afc0" stroke-width="3" stroke-linecap="round" stroke-linejoin="round"></path><path data-line="legR" d="M234 325 C257 350 237 365 217 347" fill="none" stroke="#b4afc0" stroke-width="3" stroke-linecap="round" stroke-linejoin="round"></path><path data-line="earL" d="M135.2 127.97482655004782 C88 92 126 58 164.0 101.30642496536481" fill="none" stroke="#b4afc0" stroke-width="3" stroke-linecap="round" stroke-linejoin="round"></path><path data-line="earR" d="M264.8 127.97482655004782 C312 92 274 58 236.0 101.30642496536481" fill="none" stroke="#b4afc0" stroke-width="3" stroke-linecap="round" stroke-linejoin="round"></path><path data-line="head" d="M200 93 C104.24 93 104.24 217 200 217 C295.76 217 295.76 93 200 93" fill="none" stroke="#b4afc0" stroke-width="3" stroke-linecap="round" stroke-linejoin="round"></path><path data-line="eyeL" d="M173 150 a4 4 0 1 0 8 0 a4 4 0 1 0 -8 0" fill="#6e6680" stroke="none" stroke-width="3" stroke-linecap="round" stroke-linejoin="round"></path><path data-line="eyeR" d="M219 150 a4 4 0 1 0 8 0 a4 4 0 1 0 -8 0" fill="#6e6680" stroke="none" stroke-width="3" stroke-linecap="round" stroke-linejoin="round"></path><path data-line="mouth" d="M188 177 Q200 185 212 177" fill="none" stroke="#b4afc0" stroke-width="3" stroke-linecap="round" stroke-linejoin="round"></path></svg></g><text x="12" y="445" font-family="sans-serif" font-size="16">기본 그림과 바꾼 예제를 나란히 봐요. 오늘 바</text><text x="12" y="468" font-family="sans-serif" font-size="16">꿀 한 가지와 그대로 둘 특징을 확인해요.</text></g><g transform="translate(400 580)"><text x="12" y="22" font-family="sans-serif" font-size="16">2/5 · draw</text><g transform="translate(10 45)"><svg width="380" height="380" viewBox="0 0 400 400" class="h-full w-full" role="img" aria-label="한 부분 변형 시범" data-testid="variation-demo"><path data-line="body" d="M200 212 C124.19 212 124.19 342 200 342 C275.81 342 275.81 212 200 212" fill="none" stroke="#b4afc0" stroke-width="3" stroke-linecap="round" stroke-linejoin="round"></path><path data-line="armL" d="M149 244 C112 246 109 279 129 286 C143 290 157 265 149 244" fill="none" stroke="#b4afc0" stroke-width="3" stroke-linecap="round" stroke-linejoin="round"></path><path data-line="armR" d="M251 244 C288 246 291 279 271 286 C257 290 243 265 251 244" fill="none" stroke="#b4afc0" stroke-width="3" stroke-linecap="round" stroke-linejoin="round"></path><path data-line="legL" d="M166 325 C143 350 163 365 183 347" fill="none" stroke="#b4afc0" stroke-width="3" stroke-linecap="round" stroke-linejoin="round"></path><path data-line="legR" d="M234 325 C257 350 237 365 217 347" fill="none" stroke="#b4afc0" stroke-width="3" stroke-linecap="round" stroke-linejoin="round"></path></svg></g><text x="12" y="445" font-family="sans-serif" font-size="16">그대로 둘 부분의 자리를 먼저 잡아요. 바꿀 부</text><text x="12" y="468" font-family="sans-serif" font-size="16">분은 빈자리로 남겨요. 큰 외곽을 바꾼다면 얼굴</text><text x="12" y="491" font-family="sans-serif" font-size="16"> 위치는 참고만 해요.</text></g><g transform="translate(800 580)"><text x="12" y="22" font-family="sans-serif" font-size="16">3/5 · look</text><g transform="translate(10 45)"><svg width="380" height="380" viewBox="0 0 400 400" class="h-full w-full" role="img" aria-label="한 부분 변형 시범" data-testid="variation-demo"><path data-line="body" d="M200 212 C124.19 212 124.19 342 200 342 C275.81 342 275.81 212 200 212" fill="none" stroke="#b4afc0" stroke-width="3" stroke-linecap="round" stroke-linejoin="round"></path><path data-line="armL" d="M149 244 C112 246 109 279 129 286 C143 290 157 265 149 244" fill="none" stroke="#b4afc0" stroke-width="3" stroke-linecap="round" stroke-linejoin="round"></path><path data-line="armR" d="M251 244 C288 246 291 279 271 286 C257 290 243 265 251 244" fill="none" stroke="#b4afc0" stroke-width="3" stroke-linecap="round" stroke-linejoin="round"></path><path data-line="legL" d="M166 325 C143 350 163 365 183 347" fill="none" stroke="#b4afc0" stroke-width="3" stroke-linecap="round" stroke-linejoin="round"></path><path data-line="legR" d="M234 325 C257 350 237 365 217 347" fill="none" stroke="#b4afc0" stroke-width="3" stroke-linecap="round" stroke-linejoin="round"></path><circle cx="200" cy="81.84" r="4" fill="#bd530c" stroke="white"></circle><circle cx="123.53599999999999" cy="123.11029532905643" r="4" fill="#bd530c" stroke="white"></circle><circle cx="276.464" cy="123.11029532905643" r="4" fill="#bd530c" stroke="white"></circle><circle cx="172.86" cy="149.1" r="4" fill="#bd530c" stroke="white"></circle><circle cx="227.14" cy="149.1" r="4" fill="#bd530c" stroke="white"></circle><circle cx="185.84" cy="180.96" r="4" fill="#bd530c" stroke="white"></circle></svg></g><text x="12" y="445" font-family="sans-serif" font-size="16">몸은 그대로 두고 머리 전체를 조금 키워요. 귀</text><text x="12" y="468" font-family="sans-serif" font-size="16">·눈·입도 머리와 함께 조금 벌려 놓아요.</text></g><g transform="translate(0 1180)"><text x="12" y="22" font-family="sans-serif" font-size="16">4/5 · draw</text><g transform="translate(10 45)"><svg width="380" height="380" viewBox="0 0 400 400" class="h-full w-full" role="img" aria-label="한 부분 변형 시범" data-testid="variation-demo"><path data-line="body" d="M200 212 C124.19 212 124.19 342 200 342 C275.81 342 275.81 212 200 212" fill="none" stroke="#b4afc0" stroke-width="3" stroke-linecap="round" stroke-linejoin="round"></path><path data-line="armL" d="M149 244 C112 246 109 279 129 286 C143 290 157 265 149 244" fill="none" stroke="#b4afc0" stroke-width="3" stroke-linecap="round" stroke-linejoin="round"></path><path data-line="armR" d="M251 244 C288 246 291 279 271 286 C257 290 243 265 251 244" fill="none" stroke="#b4afc0" stroke-width="3" stroke-linecap="round" stroke-linejoin="round"></path><path data-line="legL" d="M166 325 C143 350 163 365 183 347" fill="none" stroke="#b4afc0" stroke-width="3" stroke-linecap="round" stroke-linejoin="round"></path><path data-line="legR" d="M234 325 C257 350 237 365 217 347" fill="none" stroke="#b4afc0" stroke-width="3" stroke-linecap="round" stroke-linejoin="round"></path><path data-line="head" d="M 200 81.84 C 87.0032 81.84 87.0032 228.16 200 228.16 C 312.997 228.16 312.997 81.84 200 81.84" fill="none" stroke="#7750c4" stroke-width="3" stroke-linecap="round" stroke-linejoin="round"></path><path data-line="earL" d="M 123.536 123.11 C 67.84 80.66 112.68 40.54 157.52 91.6416" fill="none" stroke="#7750c4" stroke-width="3" stroke-linecap="round" stroke-linejoin="round"></path><path data-line="earR" d="M 276.464 123.11 C 332.16 80.66 287.32 40.54 242.48 91.6416" fill="none" stroke="#7750c4" stroke-width="3" stroke-linecap="round" stroke-linejoin="round"></path><path data-line="eyeL" d="M168.86 149.1 a4 4 0 1 0 8 0 a4 4 0 1 0 -8 0" fill="#7750c4" stroke="none" stroke-width="3" stroke-linecap="round" stroke-linejoin="round"></path><path data-line="eyeR" d="M223.14 149.1 a4 4 0 1 0 8 0 a4 4 0 1 0 -8 0" fill="#7750c4" stroke="none" stroke-width="3" stroke-linecap="round" stroke-linejoin="round"></path><path data-line="mouth" d="M 185.84 180.96 Q 200 190.4 214.16 180.96" fill="none" stroke="#7750c4" stroke-width="3" stroke-linecap="round" stroke-linejoin="round"></path></svg></g><text x="12" y="445" font-family="sans-serif" font-size="16">빈자리에 바꿀 부분을 넣어요. 보라색 시범은 이</text><text x="12" y="468" font-family="sans-serif" font-size="16">번에 바꾸는 선이에요. 나머지는 그대로 두어요.</text></g><g transform="translate(400 1180)"><text x="12" y="22" font-family="sans-serif" font-size="16">5/5 · compare</text><g transform="translate(10 45)"><svg width="380" height="380" viewBox="0 0 400 400" class="h-full w-full" role="img" aria-label="한 부분 변형 시범" data-testid="variation-demo"><path data-line="body" d="M200 212 C124.19 212 124.19 342 200 342 C275.81 342 275.81 212 200 212" fill="none" stroke="#b4afc0" stroke-width="3" stroke-linecap="round" stroke-linejoin="round"></path><path data-line="armL" d="M149 244 C112 246 109 279 129 286 C143 290 157 265 149 244" fill="none" stroke="#b4afc0" stroke-width="3" stroke-linecap="round" stroke-linejoin="round"></path><path data-line="armR" d="M251 244 C288 246 291 279 271 286 C257 290 243 265 251 244" fill="none" stroke="#b4afc0" stroke-width="3" stroke-linecap="round" stroke-linejoin="round"></path><path data-line="legL" d="M166 325 C143 350 163 365 183 347" fill="none" stroke="#b4afc0" stroke-width="3" stroke-linecap="round" stroke-linejoin="round"></path><path data-line="legR" d="M234 325 C257 350 237 365 217 347" fill="none" stroke="#b4afc0" stroke-width="3" stroke-linecap="round" stroke-linejoin="round"></path><path data-line="head" d="M 200 81.84 C 87.0032 81.84 87.0032 228.16 200 228.16 C 312.997 228.16 312.997 81.84 200 81.84" fill="none" stroke="#7750c4" stroke-width="3" stroke-linecap="round" stroke-linejoin="round"></path><path data-line="earL" d="M 123.536 123.11 C 67.84 80.66 112.68 40.54 157.52 91.6416" fill="none" stroke="#7750c4" stroke-width="3" stroke-linecap="round" stroke-linejoin="round"></path><path data-line="earR" d="M 276.464 123.11 C 332.16 80.66 287.32 40.54 242.48 91.6416" fill="none" stroke="#7750c4" stroke-width="3" stroke-linecap="round" stroke-linejoin="round"></path><path data-line="eyeL" d="M168.86 149.1 a4 4 0 1 0 8 0 a4 4 0 1 0 -8 0" fill="#7750c4" stroke="none" stroke-width="3" stroke-linecap="round" stroke-linejoin="round"></path><path data-line="eyeR" d="M223.14 149.1 a4 4 0 1 0 8 0 a4 4 0 1 0 -8 0" fill="#7750c4" stroke="none" stroke-width="3" stroke-linecap="round" stroke-linejoin="round"></path><path data-line="mouth" d="M 185.84 180.96 Q 200 190.4 214.16 180.96" fill="none" stroke="#7750c4" stroke-width="3" stroke-linecap="round" stroke-linejoin="round"></path></svg></g><text x="12" y="445" font-family="sans-serif" font-size="16">기본 그림과 내 그림을 비교해요. 바꾼 것 하나</text><text x="12" y="468" font-family="sans-serif" font-size="16">와 유지한 것 하나를 직접 확인하고 저장해요.</text></g></svg>