<svg xmlns="http://www.w3.org/2000/svg" width="1200" height="1350"><rect width="100%" height="100%" fill="white"/><g transform="translate(0 0)"><text x="8" y="25" font-family="sans-serif" font-size="13">D60 example 2 / Original</text><g transform="translate(10 50)"><svg width="380" height="380" viewBox="0 0 400 400" class="h-full w-full" role="img" aria-label="옆으로 기울기 · 반대 방향"><defs><marker id="arrow-_R_0_" markerWidth="5" markerHeight="5" refX="3.5" refY="2.5" orient="auto"><path d="M 0 0 L 5 2.5 L 0 5 Z" fill="#bd530c"></path></marker></defs><g><g><path d="M210.12 82.22 A26 26 0 1 0 262.12 82.22 A26 26 0 1 0 210.12 82.22" fill="none" stroke="#161616" stroke-width="3" stroke-linecap="round" stroke-linejoin="round"></path></g><g><path d="M200.473 107.832 L166.073 206.532 A25 25 0 0 0 213.287 222.988 L247.687 124.288 A25 25 0 0 0 200.473 107.832" fill="none" stroke="#161616" stroke-width="3" stroke-linecap="round" stroke-linejoin="round"></path></g><g><path d="M234.002 131.844 L233.142 171.324 A9 9 0 0 0 251.138 171.716 L251.998 132.236 A9 9 0 0 0 234.002 131.844" fill="none" stroke="#161616" stroke-width="3" stroke-linecap="round" stroke-linejoin="round"></path></g><g><path d="M234.693 166.465 L214.913 195.605 A9 9 0 0 0 229.807 205.715 L249.587 176.575 A9 9 0 0 0 234.693 166.465" fill="none" stroke="#161616" stroke-width="3" stroke-linecap="round" stroke-linejoin="round"></path></g><g><path d="M196.394 115.519 L177.474 150.299 A9 9 0 0 0 193.286 158.901 L212.206 124.121 A9 9 0 0 0 196.394 115.519" fill="none" stroke="#161616" stroke-width="3" stroke-linecap="round" stroke-linejoin="round"></path></g><g><path d="M179.094 148.159 L155.014 171.659 A9 9 0 0 0 167.586 184.541 L191.666 161.041 A9 9 0 0 0 179.094 148.159" fill="none" stroke="#161616" stroke-width="3" stroke-linecap="round" stroke-linejoin="round"></path></g><g><path d="M189.427 217.795 L203.187 265.735 A11 11 0 0 0 224.333 259.665 L210.573 211.725 A11 11 0 0 0 189.427 217.795" fill="none" stroke="#161616" stroke-width="3" stroke-linecap="round" stroke-linejoin="round"></path></g><g><path d="M202.926 264.606 L211.526 313.486 A11 11 0 0 0 233.194 309.674 L224.594 260.794 A11 11 0 0 0 202.926 264.606" fill="none" stroke="#161616" stroke-width="3" stroke-linecap="round" stroke-linejoin="round"></path></g><g><path d="M222.36 305.58 L206.36 305.58 A6 6 0 0 0 206.36 317.58 L222.36 317.58 A6 6 0 0 0 222.36 305.58" fill="none" stroke="#161616" stroke-width="3" stroke-linecap="round" stroke-linejoin="round"></path></g><g><path d="M168.821 211.608 L154.201 260.488 A11 11 0 0 0 175.279 266.792 L189.899 217.912 A11 11 0 0 0 168.821 211.608" fill="none" stroke="#161616" stroke-width="3" stroke-linecap="round" stroke-linejoin="round"></path></g><g><path d="M153.881 261.887 L146.141 309.827 A11 11 0 0 0 167.859 313.333 L175.599 265.393 A11 11 0 0 0 153.881 261.887" fill="none" stroke="#161616" stroke-width="3" stroke-linecap="round" stroke-linejoin="round"></path></g><g><path d="M157 305.58 L141 305.58 A6 6 0 0 0 141 317.58 L157 317.58 A6 6 0 0 0 157 305.58" fill="none" stroke="#161616" stroke-width="3" stroke-linecap="round" stroke-linejoin="round"></path></g></g></svg></g></g><g transform="translate(400 0)"><text x="8" y="25" font-family="sans-serif" font-size="13">D60 example 2 / Base pose</text><g transform="translate(10 50)"><svg width="380" height="380" viewBox="0 0 400 400" class="h-full w-full" role="img" aria-label="자세의 큰 방향" data-testid="gesture-base"></svg></g></g><g transform="translate(800 0)"><text x="8" y="25" font-family="sans-serif" font-size="13">D60 example 2 / Easy guide</text><g transform="translate(10 50)"><svg width="380" height="380" viewBox="0 0 400 400" class="h-full w-full" role="img" aria-label="자세의 큰 방향" data-testid="gesture-easy"><path data-line="head" d="M210.12 82.22 A26 26 0 1 0 262.12 82.22 A26 26 0 1 0 210.12 82.22" fill="none" stroke="#7750c4" stroke-width="3" stroke-linecap="round" stroke-linejoin="round"></path><path data-line="center" d="M236.12 108.22 L224.08 116.06 L189.68 214.76" fill="none" stroke="#7750c4" stroke-width="3" stroke-linecap="round" stroke-linejoin="round"></path><path data-line="shoulders" d="M243 132.04 L204.3 119.82" fill="none" stroke="#7750c4" stroke-width="3" stroke-linecap="round" stroke-linejoin="round"></path><path data-line="arm0" d="M243 132.04 L242.14 171.52 L222.36 200.66" fill="none" stroke="#7750c4" stroke-width="3" stroke-linecap="round" stroke-linejoin="round"></path><path data-line="arm1" d="M204.3 119.82 L185.38 154.6 L161.3 178.1" fill="none" stroke="#7750c4" stroke-width="3" stroke-linecap="round" stroke-linejoin="round"></path><path data-line="leg0" d="M189.68 214.76 L213.76 262.7 L222.36 311.58" fill="none" stroke="#7750c4" stroke-width="3" stroke-linecap="round" stroke-linejoin="round"></path><path data-line="foot0" d="M222.36 311.58 L206.36 311.58" fill="none" stroke="#7750c4" stroke-width="3" stroke-linecap="round" stroke-linejoin="round"></path><path data-line="leg1" d="M189.68 214.76 L164.74 263.64 L157 311.58" fill="none" stroke="#7750c4" stroke-width="3" stroke-linecap="round" stroke-linejoin="round"></path><path data-line="foot1" d="M157 311.58 L141 311.58" fill="none" stroke="#7750c4" stroke-width="3" stroke-linecap="round" stroke-linejoin="round"></path></svg></g></g><g transform="translate(0 450)"><text x="8" y="25" font-family="sans-serif" font-size="13">D60 example 2 / Action 1</text><g transform="translate(10 50)"><svg width="380" height="380" viewBox="0 0 400 400" class="h-full w-full" role="img" aria-label="자세의 큰 방향" data-testid="gesture-demo"></svg></g></g><g transform="translate(400 450)"><text x="8" y="25" font-family="sans-serif" font-size="13">D60 example 2 / Action 2</text><g transform="translate(10 50)"><svg width="380" height="380" viewBox="0 0 400 400" class="h-full w-full" role="img" aria-label="자세의 큰 방향" data-testid="gesture-demo"><path data-line="head" d="M210.12 82.22 A26 26 0 1 0 262.12 82.22 A26 26 0 1 0 210.12 82.22" fill="none" stroke="#7750c4" stroke-width="3" stroke-linecap="round" stroke-linejoin="round"></path><path data-line="center" d="M236.12 108.22 L224.08 116.06 L189.68 214.76" fill="none" stroke="#7750c4" stroke-width="3" stroke-linecap="round" stroke-linejoin="round"></path></svg></g></g><g transform="translate(800 450)"><text x="8" y="25" font-family="sans-serif" font-size="13">D60 example 2 / Action 3</text><g transform="translate(10 50)"><svg width="380" height="380" viewBox="0 0 400 400" class="h-full w-full" role="img" aria-label="자세의 큰 방향" data-testid="gesture-demo"><path data-line="head" d="M210.12 82.22 A26 26 0 1 0 262.12 82.22 A26 26 0 1 0 210.12 82.22" fill="none" stroke="#7750c4" stroke-width="3" stroke-linecap="round" stroke-linejoin="round"></path><path data-line="center" d="M236.12 108.22 L224.08 116.06 L189.68 214.76" fill="none" stroke="#7750c4" stroke-width="3" stroke-linecap="round" stroke-linejoin="round"></path><path data-line="leg0" d="M189.68 214.76 L213.76 262.7 L222.36 311.58" fill="none" stroke="#7750c4" stroke-width="3" stroke-linecap="round" stroke-linejoin="round"></path><path data-line="leg1" d="M189.68 214.76 L164.74 263.64 L157 311.58" fill="none" stroke="#7750c4" stroke-width="3" stroke-linecap="round" stroke-linejoin="round"></path></svg></g></g><g transform="translate(0 900)"><text x="8" y="25" font-family="sans-serif" font-size="13">D60 example 2 / Action 4</text><g transform="translate(10 50)"><svg width="380" height="380" viewBox="0 0 400 400" class="h-full w-full" role="img" aria-label="자세의 큰 방향" data-testid="gesture-demo"><path data-line="head" d="M210.12 82.22 A26 26 0 1 0 262.12 82.22 A26 26 0 1 0 210.12 82.22" fill="none" stroke="#7750c4" stroke-width="3" stroke-linecap="round" stroke-linejoin="round"></path><path data-line="center" d="M236.12 108.22 L224.08 116.06 L189.68 214.76" fill="none" stroke="#7750c4" stroke-width="3" stroke-linecap="round" stroke-linejoin="round"></path><path data-line="shoulders" d="M243 132.04 L204.3 119.82" fill="none" stroke="#7750c4" stroke-width="3" stroke-linecap="round" stroke-linejoin="round"></path><path data-line="arm0" d="M243 132.04 L242.14 171.52 L222.36 200.66" fill="none" stroke="#7750c4" stroke-width="3" stroke-linecap="round" stroke-linejoin="round"></path><path data-line="arm1" d="M204.3 119.82 L185.38 154.6 L161.3 178.1" fill="none" stroke="#7750c4" stroke-width="3" stroke-linecap="round" stroke-linejoin="round"></path><path data-line="leg0" d="M189.68 214.76 L213.76 262.7 L222.36 311.58" fill="none" stroke="#7750c4" stroke-width="3" stroke-linecap="round" stroke-linejoin="round"></path><path data-line="foot0" d="M222.36 311.58 L206.36 311.58" fill="none" stroke="#7750c4" stroke-width="3" stroke-linecap="round" stroke-linejoin="round"></path><path data-line="leg1" d="M189.68 214.76 L164.74 263.64 L157 311.58" fill="none" stroke="#7750c4" stroke-width="3" stroke-linecap="round" stroke-linejoin="round"></path><path data-line="foot1" d="M157 311.58 L141 311.58" fill="none" stroke="#7750c4" stroke-width="3" stroke-linecap="round" stroke-linejoin="round"></path></svg></g></g><g transform="translate(400 900)"><text x="8" y="25" font-family="sans-serif" font-size="13">D60 example 2 / Action 5</text><g transform="translate(10 50)"><svg width="380" height="380" viewBox="0 0 400 400" class="h-full w-full" role="img" aria-label="자세의 큰 방향" data-testid="gesture-demo"><path data-line="head" d="M210.12 82.22 A26 26 0 1 0 262.12 82.22 A26 26 0 1 0 210.12 82.22" fill="none" stroke="#7750c4" stroke-width="3" stroke-linecap="round" stroke-linejoin="round"></path><path data-line="center" d="M236.12 108.22 L224.08 116.06 L189.68 214.76" fill="none" stroke="#7750c4" stroke-width="3" stroke-linecap="round" stroke-linejoin="round"></path><path data-line="shoulders" d="M243 132.04 L204.3 119.82" fill="none" stroke="#7750c4" stroke-width="3" stroke-linecap="round" stroke-linejoin="round"></path><path data-line="arm0" d="M243 132.04 L242.14 171.52 L222.36 200.66" fill="none" stroke="#7750c4" stroke-width="3" stroke-linecap="round" stroke-linejoin="round"></path><path data-line="arm1" d="M204.3 119.82 L185.38 154.6 L161.3 178.1" fill="none" stroke="#7750c4" stroke-width="3" stroke-linecap="round" stroke-linejoin="round"></path><path data-line="leg0" d="M189.68 214.76 L213.76 262.7 L222.36 311.58" fill="none" stroke="#7750c4" stroke-width="3" stroke-linecap="round" stroke-linejoin="round"></path><path data-line="foot0" d="M222.36 311.58 L206.36 311.58" fill="none" stroke="#7750c4" stroke-width="3" stroke-linecap="round" stroke-linejoin="round"></path><path data-line="leg1" d="M189.68 214.76 L164.74 263.64 L157 311.58" fill="none" stroke="#7750c4" stroke-width="3" stroke-linecap="round" stroke-linejoin="round"></path><path data-line="foot1" d="M157 311.58 L141 311.58" fill="none" stroke="#7750c4" stroke-width="3" stroke-linecap="round" stroke-linejoin="round"></path></svg></g></g></svg>