<svg xmlns="http://www.w3.org/2000/svg" width="1200" height="2240" viewBox="0 0 1200 2240"><rect width="100%" height="100%" fill="white"/><defs><marker id="arrow" markerWidth="5" markerHeight="5" refX="3.5" refY="2.5" orient="auto"><path d="M0 0 L5 2.5 L0 5Z" fill="#bd530c"/></marker></defs><g transform="translate(0,0)"><text x="15" y="22" font-family="sans-serif" font-size="18">D04 1번 예제 · 1 / 6</text><circle cx="200" cy="142" r="5" fill="#bb510c" stroke="white" stroke-width="1.5"/><text x="15" y="400" font-family="sans-serif" font-size="16">얼굴과 귀를 눈으로 찾아요. 큰 얼굴 위쪽 점</text><text x="15" y="424" font-family="sans-serif" font-size="16">을 먼저 짚어요.</text></g><g transform="translate(400,0)"><text x="15" y="22" font-family="sans-serif" font-size="18">D04 1번 예제 · 2 / 6</text><path d="M200 142 C139.247 142 90 181.398 90 230 C90 278.602 139.247 318 200 318" fill="none" stroke="#7750c4" stroke-width="3" stroke-linecap="round" stroke-linejoin="round"/><circle cx="200" cy="142" r="5" fill="#bb510c" stroke="white" stroke-width="1.5"/><path d="M200 142 L170 142" fill="none" stroke="#bd530c" stroke-width="2" marker-end="url(#arrow)"/><text x="15" y="400" font-family="sans-serif" font-size="16">얼굴 위에서 왼쪽으로 돌아 아래까지 그려요.</text></g><g transform="translate(800,0)"><text x="15" y="22" font-family="sans-serif" font-size="18">D04 1번 예제 · 3 / 6</text><path d="M200 142 C139.247 142 90 181.398 90 230 C90 278.602 139.247 318 200 318" fill="none" stroke="#c5c1cf" stroke-width="3" stroke-linecap="round" stroke-linejoin="round"/><path d="M200 142 C260.753 142 310 181.398 310 230 C310 278.602 260.753 318 200 318" fill="none" stroke="#7750c4" stroke-width="3" stroke-linecap="round" stroke-linejoin="round"/><circle cx="200" cy="142" r="5" fill="#bb510c" stroke="white" stroke-width="1.5"/><path d="M200 142 L230 142" fill="none" stroke="#bd530c" stroke-width="2" marker-end="url(#arrow)"/><text x="15" y="400" font-family="sans-serif" font-size="16">얼굴 위로 돌아와 오른쪽 반도 아래까지 이어요</text><text x="15" y="424" font-family="sans-serif" font-size="16">.</text></g><g transform="translate(0,560)"><text x="15" y="22" font-family="sans-serif" font-size="18">D04 1번 예제 · 4 / 6</text><path d="M200 142 C139.247 142 90 181.398 90 230 C90 278.602 139.247 318 200 318" fill="none" stroke="#c5c1cf" stroke-width="3" stroke-linecap="round" stroke-linejoin="round"/><path d="M200 142 C260.753 142 310 181.398 310 230 C310 278.602 260.753 318 200 318" fill="none" stroke="#c5c1cf" stroke-width="3" stroke-linecap="round" stroke-linejoin="round"/><path d="M126 165 C108 113 109 57 133 57 C161 57 165 104 176 145" fill="none" stroke="#7750c4" stroke-width="3" stroke-linecap="round" stroke-linejoin="round"/><circle cx="126" cy="165" r="5" fill="#bb510c" stroke="white" stroke-width="1.5"/><path d="M126 165 L119 140" fill="none" stroke="#bd530c" stroke-width="2" marker-end="url(#arrow)"/><text x="15" y="400" font-family="sans-serif" font-size="16">왼쪽 귀 밑의 점에서 위로 길게 올라가요. 꼭</text><text x="15" y="424" font-family="sans-serif" font-size="16">대기를 둥글게 돌아 다른 쪽 밑으로 내려와요.</text></g><g transform="translate(400,560)"><text x="15" y="22" font-family="sans-serif" font-size="18">D04 1번 예제 · 5 / 6</text><path d="M200 142 C139.247 142 90 181.398 90 230 C90 278.602 139.247 318 200 318" fill="none" stroke="#c5c1cf" stroke-width="3" stroke-linecap="round" stroke-linejoin="round"/><path d="M200 142 C260.753 142 310 181.398 310 230 C310 278.602 260.753 318 200 318" fill="none" stroke="#c5c1cf" stroke-width="3" stroke-linecap="round" stroke-linejoin="round"/><path d="M126 165 C108 113 109 57 133 57 C161 57 165 104 176 145" fill="none" stroke="#c5c1cf" stroke-width="3" stroke-linecap="round" stroke-linejoin="round"/><path d="M224 145 C235 104 239 57 267 57 C291 57 292 113 274 165" fill="none" stroke="#7750c4" stroke-width="3" stroke-linecap="round" stroke-linejoin="round"/><circle cx="224" cy="145" r="5" fill="#bb510c" stroke="white" stroke-width="1.5"/><path d="M224 145 L231 120" fill="none" stroke="#bd530c" stroke-width="2" marker-end="url(#arrow)"/><text x="15" y="400" font-family="sans-serif" font-size="16">오른쪽 귀도 밑에서 출발해 꼭대기를 돌아 내려</text><text x="15" y="424" font-family="sans-serif" font-size="16">와요.</text></g><g transform="translate(800,560)"><text x="15" y="22" font-family="sans-serif" font-size="18">D04 1번 예제 · 6 / 6</text><path d="M200 142 C139.247 142 90 181.398 90 230 C90 278.602 139.247 318 200 318" fill="none" stroke="#c5c1cf" stroke-width="3" stroke-linecap="round" stroke-linejoin="round"/><path d="M200 142 C260.753 142 310 181.398 310 230 C310 278.602 260.753 318 200 318" fill="none" stroke="#c5c1cf" stroke-width="3" stroke-linecap="round" stroke-linejoin="round"/><path d="M126 165 C108 113 109 57 133 57 C161 57 165 104 176 145" fill="none" stroke="#c5c1cf" stroke-width="3" stroke-linecap="round" stroke-linejoin="round"/><path d="M224 145 C235 104 239 57 267 57 C291 57 292 113 274 165" fill="none" stroke="#c5c1cf" stroke-width="3" stroke-linecap="round" stroke-linejoin="round"/><path d="M156 234 a5 5 0 1 0 10 0 a5 5 0 1 0 -10 0" fill="#7750c4" stroke="none" stroke-width="3" stroke-linecap="round" stroke-linejoin="round"/><circle cx="161" cy="234" r="5" fill="#bb510c" stroke="white" stroke-width="1.5"/><path d="M234 234 a5 5 0 1 0 10 0 a5 5 0 1 0 -10 0" fill="#7750c4" stroke="none" stroke-width="3" stroke-linecap="round" stroke-linejoin="round"/><circle cx="239" cy="234" r="5" fill="#bb510c" stroke="white" stroke-width="1.5"/><path d="M194 255 Q200 261 206 255" fill="none" stroke="#7750c4" stroke-width="3" stroke-linecap="round" stroke-linejoin="round"/><circle cx="194" cy="255" r="5" fill="#bb510c" stroke="white" stroke-width="1.5"/><path d="M194 255 L200 261" fill="none" stroke="#bd530c" stroke-width="2" marker-end="url(#arrow)"/><text x="15" y="400" font-family="sans-serif" font-size="16">점 눈 두 개와 짧은 입을 넣어요. 귀가 얼굴</text><text x="15" y="424" font-family="sans-serif" font-size="16">보다 길쭉한 모양인지 봐요.</text></g><g transform="translate(0,1120)"><text x="15" y="22" font-family="sans-serif" font-size="18">D04 2번 예제 · 1 / 6</text><circle cx="200" cy="142" r="5" fill="#bb510c" stroke="white" stroke-width="1.5"/><text x="15" y="400" font-family="sans-serif" font-size="16">얼굴과 귀를 눈으로 찾아요. 큰 얼굴 위쪽 점</text><text x="15" y="424" font-family="sans-serif" font-size="16">을 먼저 짚어요.</text></g><g transform="translate(400,1120)"><text x="15" y="22" font-family="sans-serif" font-size="18">D04 2번 예제 · 2 / 6</text><path d="M200 142 C139.247 142 90 181.398 90 230 C90 278.602 139.247 318 200 318" fill="none" stroke="#7750c4" stroke-width="3" stroke-linecap="round" stroke-linejoin="round"/><circle cx="200" cy="142" r="5" fill="#bb510c" stroke="white" stroke-width="1.5"/><path d="M200 142 L170 142" fill="none" stroke="#bd530c" stroke-width="2" marker-end="url(#arrow)"/><text x="15" y="400" font-family="sans-serif" font-size="16">얼굴 위에서 왼쪽으로 돌아 아래까지 그려요.</text></g><g transform="translate(800,1120)"><text x="15" y="22" font-family="sans-serif" font-size="18">D04 2번 예제 · 3 / 6</text><path d="M200 142 C139.247 142 90 181.398 90 230 C90 278.602 139.247 318 200 318" fill="none" stroke="#c5c1cf" stroke-width="3" stroke-linecap="round" stroke-linejoin="round"/><path d="M200 142 C260.753 142 310 181.398 310 230 C310 278.602 260.753 318 200 318" fill="none" stroke="#7750c4" stroke-width="3" stroke-linecap="round" stroke-linejoin="round"/><circle cx="200" cy="142" r="5" fill="#bb510c" stroke="white" stroke-width="1.5"/><path d="M200 142 L230 142" fill="none" stroke="#bd530c" stroke-width="2" marker-end="url(#arrow)"/><text x="15" y="400" font-family="sans-serif" font-size="16">얼굴 위로 돌아와 오른쪽 반도 아래까지 이어요</text><text x="15" y="424" font-family="sans-serif" font-size="16">.</text></g><g transform="translate(0,1680)"><text x="15" y="22" font-family="sans-serif" font-size="18">D04 2번 예제 · 4 / 6</text><path d="M200 142 C139.247 142 90 181.398 90 230 C90 278.602 139.247 318 200 318" fill="none" stroke="#c5c1cf" stroke-width="3" stroke-linecap="round" stroke-linejoin="round"/><path d="M200 142 C260.753 142 310 181.398 310 230 C310 278.602 260.753 318 200 318" fill="none" stroke="#c5c1cf" stroke-width="3" stroke-linecap="round" stroke-linejoin="round"/><path d="M126 165 C111 131 113 97 135 96 C156 94 162 115 176 145" fill="none" stroke="#7750c4" stroke-width="3" stroke-linecap="round" stroke-linejoin="round"/><circle cx="126" cy="165" r="5" fill="#bb510c" stroke="white" stroke-width="1.5"/><path d="M126 165 L119 140" fill="none" stroke="#bd530c" stroke-width="2" marker-end="url(#arrow)"/><text x="15" y="400" font-family="sans-serif" font-size="16">왼쪽 귀 밑의 점에서 위로 길게 올라가요. 꼭</text><text x="15" y="424" font-family="sans-serif" font-size="16">대기를 둥글게 돌아 다른 쪽 밑으로 내려와요.</text></g><g transform="translate(400,1680)"><text x="15" y="22" font-family="sans-serif" font-size="18">D04 2번 예제 · 5 / 6</text><path d="M200 142 C139.247 142 90 181.398 90 230 C90 278.602 139.247 318 200 318" fill="none" stroke="#c5c1cf" stroke-width="3" stroke-linecap="round" stroke-linejoin="round"/><path d="M200 142 C260.753 142 310 181.398 310 230 C310 278.602 260.753 318 200 318" fill="none" stroke="#c5c1cf" stroke-width="3" stroke-linecap="round" stroke-linejoin="round"/><path d="M126 165 C111 131 113 97 135 96 C156 94 162 115 176 145" fill="none" stroke="#c5c1cf" stroke-width="3" stroke-linecap="round" stroke-linejoin="round"/><path d="M224 145 C238 115 244 94 265 96 C287 97 289 131 274 165" fill="none" stroke="#7750c4" stroke-width="3" stroke-linecap="round" stroke-linejoin="round"/><circle cx="224" cy="145" r="5" fill="#bb510c" stroke="white" stroke-width="1.5"/><path d="M224 145 L231 120" fill="none" stroke="#bd530c" stroke-width="2" marker-end="url(#arrow)"/><text x="15" y="400" font-family="sans-serif" font-size="16">오른쪽 귀도 밑에서 출발해 꼭대기를 돌아 내려</text><text x="15" y="424" font-family="sans-serif" font-size="16">와요.</text></g><g transform="translate(800,1680)"><text x="15" y="22" font-family="sans-serif" font-size="18">D04 2번 예제 · 6 / 6</text><path d="M200 142 C139.247 142 90 181.398 90 230 C90 278.602 139.247 318 200 318" fill="none" stroke="#c5c1cf" stroke-width="3" stroke-linecap="round" stroke-linejoin="round"/><path d="M200 142 C260.753 142 310 181.398 310 230 C310 278.602 260.753 318 200 318" fill="none" stroke="#c5c1cf" stroke-width="3" stroke-linecap="round" stroke-linejoin="round"/><path d="M126 165 C111 131 113 97 135 96 C156 94 162 115 176 145" fill="none" stroke="#c5c1cf" stroke-width="3" stroke-linecap="round" stroke-linejoin="round"/><path d="M224 145 C238 115 244 94 265 96 C287 97 289 131 274 165" fill="none" stroke="#c5c1cf" stroke-width="3" stroke-linecap="round" stroke-linejoin="round"/><path d="M156 234 a5 5 0 1 0 10 0 a5 5 0 1 0 -10 0" fill="#7750c4" stroke="none" stroke-width="3" stroke-linecap="round" stroke-linejoin="round"/><circle cx="161" cy="234" r="5" fill="#bb510c" stroke="white" stroke-width="1.5"/><path d="M234 234 a5 5 0 1 0 10 0 a5 5 0 1 0 -10 0" fill="#7750c4" stroke="none" stroke-width="3" stroke-linecap="round" stroke-linejoin="round"/><circle cx="239" cy="234" r="5" fill="#bb510c" stroke="white" stroke-width="1.5"/><path d="M194 255 Q200 261 206 255" fill="none" stroke="#7750c4" stroke-width="3" stroke-linecap="round" stroke-linejoin="round"/><circle cx="194" cy="255" r="5" fill="#bb510c" stroke="white" stroke-width="1.5"/><path d="M194 255 L200 261" fill="none" stroke="#bd530c" stroke-width="2" marker-end="url(#arrow)"/><text x="15" y="400" font-family="sans-serif" font-size="16">점 눈 두 개와 짧은 입을 넣어요. 귀가 얼굴</text><text x="15" y="424" font-family="sans-serif" font-size="16">보다 길쭉한 모양인지 봐요.</text></g></svg>