<svg xmlns="http://www.w3.org/2000/svg" width="1200" height="2240" viewBox="0 0 1200 2240"><rect width="100%" height="100%" fill="white"/><defs><marker id="arrow" markerWidth="5" markerHeight="5" refX="3.5" refY="2.5" orient="auto"><path d="M0 0 L5 2.5 L0 5Z" fill="#bd530c"/></marker></defs><g transform="translate(0,0)"><text x="15" y="22" font-family="sans-serif" font-size="18">D07 1번 예제 · 1 / 6</text><circle cx="200" cy="120" r="5" fill="#bb510c" stroke="white" stroke-width="1.5"/><text x="15" y="400" font-family="sans-serif" font-size="16">처음 보는 얼굴이에요. 눈보다 큰 얼굴 선을 </text><text x="15" y="424" font-family="sans-serif" font-size="16">먼저 찾아 위쪽 점을 짚어요.</text></g><g transform="translate(400,0)"><text x="15" y="22" font-family="sans-serif" font-size="18">D07 1번 예제 · 2 / 6</text><path d="M200 120 C133.724 120 80 164.77 80 220 C80 275.23 133.724 320 200 320" fill="none" stroke="#7750c4" stroke-width="3" stroke-linecap="round" stroke-linejoin="round"/><circle cx="200" cy="120" r="5" fill="#bb510c" stroke="white" stroke-width="1.5"/><path d="M200 120 L170 120" fill="none" stroke="#bd530c" stroke-width="2" marker-end="url(#arrow)"/><text x="15" y="400" font-family="sans-serif" font-size="16">큰 얼굴 위에서 왼쪽으로 돌아 아래까지 따라가</text><text x="15" y="424" font-family="sans-serif" font-size="16">요.</text></g><g transform="translate(800,0)"><text x="15" y="22" font-family="sans-serif" font-size="18">D07 1번 예제 · 3 / 6</text><path d="M200 120 C133.724 120 80 164.77 80 220 C80 275.23 133.724 320 200 320" fill="none" stroke="#c5c1cf" stroke-width="3" stroke-linecap="round" stroke-linejoin="round"/><path d="M200 120 C266.276 120 320 164.77 320 220 C320 275.23 266.276 320 200 320" fill="none" stroke="#7750c4" stroke-width="3" stroke-linecap="round" stroke-linejoin="round"/><circle cx="200" cy="120" r="5" fill="#bb510c" stroke="white" stroke-width="1.5"/><path d="M200 120 L230 120" fill="none" stroke="#bd530c" stroke-width="2" marker-end="url(#arrow)"/><text x="15" y="400" font-family="sans-serif" font-size="16">다시 얼굴 위에서 오른쪽 반을 따라가요. 아래</text><text x="15" y="424" font-family="sans-serif" font-size="16">에서 두 선을 만나요.</text></g><g transform="translate(0,560)"><text x="15" y="22" font-family="sans-serif" font-size="18">D07 1번 예제 · 4 / 6</text><path d="M200 120 C133.724 120 80 164.77 80 220 C80 275.23 133.724 320 200 320" fill="none" stroke="#c5c1cf" stroke-width="3" stroke-linecap="round" stroke-linejoin="round"/><path d="M200 120 C266.276 120 320 164.77 320 220 C320 275.23 266.276 320 200 320" fill="none" stroke="#c5c1cf" stroke-width="3" stroke-linecap="round" stroke-linejoin="round"/><path d="M102 162 L107 83 Q132 91 153 128" fill="none" stroke="#7750c4" stroke-width="3" stroke-linecap="round" stroke-linejoin="round"/><circle cx="102" cy="162" r="5" fill="#bb510c" stroke="white" stroke-width="1.5"/><path d="M102 162 L104 134" fill="none" stroke="#bd530c" stroke-width="2" marker-end="url(#arrow)"/><text x="15" y="400" font-family="sans-serif" font-size="16">왼쪽 귀 밑에서 꼭짓점으로 올라가요. 방향을 </text><text x="15" y="424" font-family="sans-serif" font-size="16">바꾸어 얼굴 위로 내려와요.</text></g><g transform="translate(400,560)"><text x="15" y="22" font-family="sans-serif" font-size="18">D07 1번 예제 · 5 / 6</text><path d="M200 120 C133.724 120 80 164.77 80 220 C80 275.23 133.724 320 200 320" fill="none" stroke="#c5c1cf" stroke-width="3" stroke-linecap="round" stroke-linejoin="round"/><path d="M200 120 C266.276 120 320 164.77 320 220 C320 275.23 266.276 320 200 320" fill="none" stroke="#c5c1cf" stroke-width="3" stroke-linecap="round" stroke-linejoin="round"/><path d="M102 162 L107 83 Q132 91 153 128" fill="none" stroke="#c5c1cf" stroke-width="3" stroke-linecap="round" stroke-linejoin="round"/><path d="M247 128 Q268 91 293 83 L298 162" fill="none" stroke="#7750c4" stroke-width="3" stroke-linecap="round" stroke-linejoin="round"/><circle cx="247" cy="128" r="5" fill="#bb510c" stroke="white" stroke-width="1.5"/><path d="M247 128 L263 101" fill="none" stroke="#bd530c" stroke-width="2" marker-end="url(#arrow)"/><text x="15" y="400" font-family="sans-serif" font-size="16">오른쪽 귀도 꼭짓점으로 올라간 뒤 방향을 바꾸</text><text x="15" y="424" font-family="sans-serif" font-size="16">어 내려와요.</text></g><g transform="translate(800,560)"><text x="15" y="22" font-family="sans-serif" font-size="18">D07 1번 예제 · 6 / 6</text><path d="M200 120 C133.724 120 80 164.77 80 220 C80 275.23 133.724 320 200 320" fill="none" stroke="#c5c1cf" stroke-width="3" stroke-linecap="round" stroke-linejoin="round"/><path d="M200 120 C266.276 120 320 164.77 320 220 C320 275.23 266.276 320 200 320" fill="none" stroke="#c5c1cf" stroke-width="3" stroke-linecap="round" stroke-linejoin="round"/><path d="M102 162 L107 83 Q132 91 153 128" fill="none" stroke="#c5c1cf" stroke-width="3" stroke-linecap="round" stroke-linejoin="round"/><path d="M247 128 Q268 91 293 83 L298 162" fill="none" stroke="#c5c1cf" stroke-width="3" stroke-linecap="round" stroke-linejoin="round"/><path d="M152 222 a5 5 0 1 0 10 0 a5 5 0 1 0 -10 0" fill="#7750c4" stroke="none" stroke-width="3" stroke-linecap="round" stroke-linejoin="round"/><circle cx="157" cy="222" r="5" fill="#bb510c" stroke="white" stroke-width="1.5"/><path d="M238 222 a5 5 0 1 0 10 0 a5 5 0 1 0 -10 0" fill="#7750c4" stroke="none" stroke-width="3" stroke-linecap="round" stroke-linejoin="round"/><circle cx="243" cy="222" r="5" fill="#bb510c" stroke="white" stroke-width="1.5"/><path d="M194 246 Q200 252 206 246" fill="none" stroke="#7750c4" stroke-width="3" stroke-linecap="round" stroke-linejoin="round"/><circle cx="194" cy="246" r="5" fill="#bb510c" stroke="white" stroke-width="1.5"/><path d="M194 246 L200 252" fill="none" stroke="#bd530c" stroke-width="2" marker-end="url(#arrow)"/><text x="15" y="400" font-family="sans-serif" font-size="16">이제 눈과 입을 넣어요. 작은 눈보다 큰 얼굴</text><text x="15" y="424" font-family="sans-serif" font-size="16">부터 시작했는지 돌아봐요.</text></g><g transform="translate(0,1120)"><text x="15" y="22" font-family="sans-serif" font-size="18">D07 2번 예제 · 1 / 6</text><circle cx="200" cy="120" r="5" fill="#bb510c" stroke="white" stroke-width="1.5"/><text x="15" y="400" font-family="sans-serif" font-size="16">처음 보는 얼굴이에요. 눈보다 큰 얼굴 선을 </text><text x="15" y="424" font-family="sans-serif" font-size="16">먼저 찾아 위쪽 점을 짚어요.</text></g><g transform="translate(400,1120)"><text x="15" y="22" font-family="sans-serif" font-size="18">D07 2번 예제 · 2 / 6</text><path d="M200 120 C133.724 120 80 164.77 80 220 C80 275.23 133.724 320 200 320" fill="none" stroke="#7750c4" stroke-width="3" stroke-linecap="round" stroke-linejoin="round"/><circle cx="200" cy="120" r="5" fill="#bb510c" stroke="white" stroke-width="1.5"/><path d="M200 120 L170 120" fill="none" stroke="#bd530c" stroke-width="2" marker-end="url(#arrow)"/><text x="15" y="400" font-family="sans-serif" font-size="16">큰 얼굴 위에서 왼쪽으로 돌아 아래까지 따라가</text><text x="15" y="424" font-family="sans-serif" font-size="16">요.</text></g><g transform="translate(800,1120)"><text x="15" y="22" font-family="sans-serif" font-size="18">D07 2번 예제 · 3 / 6</text><path d="M200 120 C133.724 120 80 164.77 80 220 C80 275.23 133.724 320 200 320" fill="none" stroke="#c5c1cf" stroke-width="3" stroke-linecap="round" stroke-linejoin="round"/><path d="M200 120 C266.276 120 320 164.77 320 220 C320 275.23 266.276 320 200 320" fill="none" stroke="#7750c4" stroke-width="3" stroke-linecap="round" stroke-linejoin="round"/><circle cx="200" cy="120" r="5" fill="#bb510c" stroke="white" stroke-width="1.5"/><path d="M200 120 L230 120" fill="none" stroke="#bd530c" stroke-width="2" marker-end="url(#arrow)"/><text x="15" y="400" font-family="sans-serif" font-size="16">다시 얼굴 위에서 오른쪽 반을 따라가요. 아래</text><text x="15" y="424" font-family="sans-serif" font-size="16">에서 두 선을 만나요.</text></g><g transform="translate(0,1680)"><text x="15" y="22" font-family="sans-serif" font-size="18">D07 2번 예제 · 4 / 6</text><path d="M200 120 C133.724 120 80 164.77 80 220 C80 275.23 133.724 320 200 320" fill="none" stroke="#c5c1cf" stroke-width="3" stroke-linecap="round" stroke-linejoin="round"/><path d="M200 120 C266.276 120 320 164.77 320 220 C320 275.23 266.276 320 200 320" fill="none" stroke="#c5c1cf" stroke-width="3" stroke-linecap="round" stroke-linejoin="round"/><path d="M102 162 L112 110 Q136 115 153 128" fill="none" stroke="#7750c4" stroke-width="3" stroke-linecap="round" stroke-linejoin="round"/><circle cx="102" cy="162" r="5" fill="#bb510c" stroke="white" stroke-width="1.5"/><path d="M102 162 L104 134" fill="none" stroke="#bd530c" stroke-width="2" marker-end="url(#arrow)"/><text x="15" y="400" font-family="sans-serif" font-size="16">왼쪽 귀 밑에서 꼭짓점으로 올라가요. 방향을 </text><text x="15" y="424" font-family="sans-serif" font-size="16">바꾸어 얼굴 위로 내려와요.</text></g><g transform="translate(400,1680)"><text x="15" y="22" font-family="sans-serif" font-size="18">D07 2번 예제 · 5 / 6</text><path d="M200 120 C133.724 120 80 164.77 80 220 C80 275.23 133.724 320 200 320" fill="none" stroke="#c5c1cf" stroke-width="3" stroke-linecap="round" stroke-linejoin="round"/><path d="M200 120 C266.276 120 320 164.77 320 220 C320 275.23 266.276 320 200 320" fill="none" stroke="#c5c1cf" stroke-width="3" stroke-linecap="round" stroke-linejoin="round"/><path d="M102 162 L112 110 Q136 115 153 128" fill="none" stroke="#c5c1cf" stroke-width="3" stroke-linecap="round" stroke-linejoin="round"/><path d="M247 128 Q264 115 288 110 L298 162" fill="none" stroke="#7750c4" stroke-width="3" stroke-linecap="round" stroke-linejoin="round"/><circle cx="247" cy="128" r="5" fill="#bb510c" stroke="white" stroke-width="1.5"/><path d="M247 128 L267 118" fill="none" stroke="#bd530c" stroke-width="2" marker-end="url(#arrow)"/><text x="15" y="400" font-family="sans-serif" font-size="16">오른쪽 귀도 꼭짓점으로 올라간 뒤 방향을 바꾸</text><text x="15" y="424" font-family="sans-serif" font-size="16">어 내려와요.</text></g><g transform="translate(800,1680)"><text x="15" y="22" font-family="sans-serif" font-size="18">D07 2번 예제 · 6 / 6</text><path d="M200 120 C133.724 120 80 164.77 80 220 C80 275.23 133.724 320 200 320" fill="none" stroke="#c5c1cf" stroke-width="3" stroke-linecap="round" stroke-linejoin="round"/><path d="M200 120 C266.276 120 320 164.77 320 220 C320 275.23 266.276 320 200 320" fill="none" stroke="#c5c1cf" stroke-width="3" stroke-linecap="round" stroke-linejoin="round"/><path d="M102 162 L112 110 Q136 115 153 128" fill="none" stroke="#c5c1cf" stroke-width="3" stroke-linecap="round" stroke-linejoin="round"/><path d="M247 128 Q264 115 288 110 L298 162" fill="none" stroke="#c5c1cf" stroke-width="3" stroke-linecap="round" stroke-linejoin="round"/><path d="M152 222 a5 5 0 1 0 10 0 a5 5 0 1 0 -10 0" fill="#7750c4" stroke="none" stroke-width="3" stroke-linecap="round" stroke-linejoin="round"/><circle cx="157" cy="222" r="5" fill="#bb510c" stroke="white" stroke-width="1.5"/><path d="M238 222 a5 5 0 1 0 10 0 a5 5 0 1 0 -10 0" fill="#7750c4" stroke="none" stroke-width="3" stroke-linecap="round" stroke-linejoin="round"/><circle cx="243" cy="222" r="5" fill="#bb510c" stroke="white" stroke-width="1.5"/><path d="M194 246 Q200 252 206 246" fill="none" stroke="#7750c4" stroke-width="3" stroke-linecap="round" stroke-linejoin="round"/><circle cx="194" cy="246" r="5" fill="#bb510c" stroke="white" stroke-width="1.5"/><path d="M194 246 L200 252" fill="none" stroke="#bd530c" stroke-width="2" marker-end="url(#arrow)"/><text x="15" y="400" font-family="sans-serif" font-size="16">이제 눈과 입을 넣어요. 작은 눈보다 큰 얼굴</text><text x="15" y="424" font-family="sans-serif" font-size="16">부터 시작했는지 돌아봐요.</text></g></svg>