<svg xmlns="http://www.w3.org/2000/svg" width="1200" height="1740"><rect width="100%" height="100%" fill="white"/><text x="12" y="22" font-family="sans-serif" font-size="16">D34 · 첫 병아리 · 더 둥근 친구 · </text><text x="12" y="45" font-family="sans-serif" font-size="16">관찰 원본</text><g transform="translate(10 55)"><svg width="380" height="380" viewBox="0 0 400 400" class="h-full w-full" role="img" aria-label="첫 병아리 · 더 둥근 친구"><defs><marker id="arrow-_refR_0_" markerWidth="5" markerHeight="5" refX="3.5" refY="2.5" orient="auto"><path d="M 0 0 L 5 2.5 L 0 5 Z" fill="#bd530c"></path></marker></defs><g><g><path d="M 200 74 C 122 74 69 153 74 228 C 78 294 119 317 200 317" fill="none" stroke="#161616" stroke-width="3" stroke-linecap="round" stroke-linejoin="round"></path></g><g><path d="M 200 74 C 278 74 331 153 326 228 C 322 294 281 317 200 317" fill="none" stroke="#161616" stroke-width="3" stroke-linecap="round" stroke-linejoin="round"></path></g><g><path d="M 149.5 152 A 6.5 6.5 0 1 0 162.5 152 A 6.5 6.5 0 1 0 149.5 152" fill="#161616" stroke="none" stroke-width="3" stroke-linecap="round" stroke-linejoin="round"></path></g><g><path d="M 237.5 152 A 6.5 6.5 0 1 0 250.5 152 A 6.5 6.5 0 1 0 237.5 152" fill="#161616" stroke="none" stroke-width="3" stroke-linecap="round" stroke-linejoin="round"></path></g><g><path d="M 190 164 L 210 164 L 200 180 Z" fill="none" stroke="#161616" stroke-width="3" stroke-linecap="round" stroke-linejoin="round"></path></g><g><path d="M 98 212 C 86 225 87 241 105 246" fill="none" stroke="#161616" stroke-width="3" stroke-linecap="round" stroke-linejoin="round"></path></g><g><path d="M 302 212 C 314 225 313 241 295 246" fill="none" stroke="#161616" stroke-width="3" stroke-linecap="round" stroke-linejoin="round"></path></g><g><path d="M 162 315 L 162 339" fill="none" stroke="#161616" stroke-width="3" stroke-linecap="round" stroke-linejoin="round"></path></g><g><path d="M 238 315 L 238 339" fill="none" stroke="#161616" stroke-width="3" stroke-linecap="round" stroke-linejoin="round"></path></g></g></svg></g><g transform="translate(400 0)"><text x="12" y="22" font-family="sans-serif" font-size="16">더 쉽게 · 기본 힌트</text><g transform="translate(10 55)"><svg width="380" height="380" viewBox="0 0 400 400" class="h-full w-full" aria-label="큰 모양 힌트" role="img" data-testid="memory-hint"><path d="M 200 74 C 122 74 69 153 74 228 C 78 294 119 317 200 317" fill="none" stroke="#b4afc0" stroke-width="3" stroke-linecap="round"></path><path d="M 200 74 C 278 74 331 153 326 228 C 322 294 281 317 200 317" fill="none" stroke="#b4afc0" stroke-width="3" stroke-linecap="round"></path></svg></g><text x="12" y="445" font-family="sans-serif" font-size="16">원본을 가리는 대신 세부만 숨긴 큰 덩어리 </text><text x="12" y="468" font-family="sans-serif" font-size="16">힌트를 제공한다.</text></g><g transform="translate(800 0)"><text x="12" y="22" font-family="sans-serif" font-size="16">기억할 특징 선택</text><text x="12" y="100" font-family="sans-serif" font-size="16">달걀 모양 몸</text><text x="12" y="150" font-family="sans-serif" font-size="16">점 눈 두 개</text><text x="12" y="200" font-family="sans-serif" font-size="16">아래쪽 짧은 다리</text><text x="12" y="330" font-family="sans-serif" font-size="16">가린 단계: 원본·세부 시범 없음</text></g><g transform="translate(0 560)"><text x="12" y="22" font-family="sans-serif" font-size="16">1/5 · observe</text><g transform="translate(10 45)"><svg width="380" height="380" viewBox="0 0 400 400" class="h-full w-full" role="img" aria-label="첫 병아리 · 더 둥근 친구"><defs><marker id="arrow-_s0R_0_" markerWidth="5" markerHeight="5" refX="3.5" refY="2.5" orient="auto"><path d="M 0 0 L 5 2.5 L 0 5 Z" fill="#bd530c"></path></marker></defs><g><g><path d="M 200 74 C 122 74 69 153 74 228 C 78 294 119 317 200 317" fill="none" stroke="#161616" stroke-width="3" stroke-linecap="round" stroke-linejoin="round"></path></g><g><path d="M 200 74 C 278 74 331 153 326 228 C 322 294 281 317 200 317" fill="none" stroke="#161616" stroke-width="3" stroke-linecap="round" stroke-linejoin="round"></path></g><g><path d="M 149.5 152 A 6.5 6.5 0 1 0 162.5 152 A 6.5 6.5 0 1 0 149.5 152" fill="#161616" stroke="none" stroke-width="3" stroke-linecap="round" stroke-linejoin="round"></path></g><g><path d="M 237.5 152 A 6.5 6.5 0 1 0 250.5 152 A 6.5 6.5 0 1 0 237.5 152" fill="#161616" stroke="none" stroke-width="3" stroke-linecap="round" stroke-linejoin="round"></path></g><g><path d="M 190 164 L 210 164 L 200 180 Z" fill="none" stroke="#161616" stroke-width="3" stroke-linecap="round" stroke-linejoin="round"></path></g><g><path d="M 98 212 C 86 225 87 241 105 246" fill="none" stroke="#161616" stroke-width="3" stroke-linecap="round" stroke-linejoin="round"></path></g><g><path d="M 302 212 C 314 225 313 241 295 246" fill="none" stroke="#161616" stroke-width="3" stroke-linecap="round" stroke-linejoin="round"></path></g><g><path d="M 162 315 L 162 339" fill="none" stroke="#161616" stroke-width="3" stroke-linecap="round" stroke-linejoin="round"></path></g><g><path d="M 238 315 L 238 339" fill="none" stroke="#161616" stroke-width="3" stroke-linecap="round" stroke-linejoin="round"></path></g></g></svg></g><text x="12" y="445" font-family="sans-serif" font-size="16">익숙한 캐릭터를 골라 주요 특징 두 개를 말</text><text x="12" y="468" font-family="sans-serif" font-size="16">하거나 선택해요. 이전 D29~D32 그림을</text><text x="12" y="491" font-family="sans-serif" font-size="16"> 골라도 돼요.</text></g><g transform="translate(400 560)"><text x="12" y="22" font-family="sans-serif" font-size="16">2/5 · recall</text><g transform="translate(10 45)"><rect width="380" height="370" rx="20" fill="#f6f4fb" stroke="#c8c0d6"/><text x="12" y="180" font-family="sans-serif" font-size="16">원본 숨김 · 기억해서 그리는 빈 자리</text></g><text x="12" y="445" font-family="sans-serif" font-size="16">원본을 가렸어요. 큰 모양과 고른 특징을 떠</text><text x="12" y="468" font-family="sans-serif" font-size="16">올려 말하거나 적어요.</text></g><g transform="translate(800 560)"><text x="12" y="22" font-family="sans-serif" font-size="16">3/5 · recall</text><g transform="translate(10 45)"><rect width="380" height="370" rx="20" fill="#f6f4fb" stroke="#c8c0d6"/><text x="12" y="180" font-family="sans-serif" font-size="16">원본 숨김 · 기억해서 그리는 빈 자리</text></g><text x="12" y="445" font-family="sans-serif" font-size="16">큰 모양부터 그린 뒤 고른 특징을 넣어요. </text><text x="12" y="468" font-family="sans-serif" font-size="16">어려우면 ‘더 쉽게’로 큰 덩어리만 참고해요</text><text x="12" y="491" font-family="sans-serif" font-size="16">.</text></g><g transform="translate(0 1130)"><text x="12" y="22" font-family="sans-serif" font-size="16">4/5 · compare</text><g transform="translate(10 45)"><svg width="380" height="380" viewBox="0 0 400 400" class="h-full w-full" role="img" aria-label="첫 병아리 · 더 둥근 친구"><defs><marker id="arrow-_s3R_0_" markerWidth="5" markerHeight="5" refX="3.5" refY="2.5" orient="auto"><path d="M 0 0 L 5 2.5 L 0 5 Z" fill="#bd530c"></path></marker></defs><g><g><path d="M 200 74 C 122 74 69 153 74 228 C 78 294 119 317 200 317" fill="none" stroke="#161616" stroke-width="3" stroke-linecap="round" stroke-linejoin="round"></path></g><g><path d="M 200 74 C 278 74 331 153 326 228 C 322 294 281 317 200 317" fill="none" stroke="#161616" stroke-width="3" stroke-linecap="round" stroke-linejoin="round"></path></g><g><path d="M 149.5 152 A 6.5 6.5 0 1 0 162.5 152 A 6.5 6.5 0 1 0 149.5 152" fill="#161616" stroke="none" stroke-width="3" stroke-linecap="round" stroke-linejoin="round"></path></g><g><path d="M 237.5 152 A 6.5 6.5 0 1 0 250.5 152 A 6.5 6.5 0 1 0 237.5 152" fill="#161616" stroke="none" stroke-width="3" stroke-linecap="round" stroke-linejoin="round"></path></g><g><path d="M 190 164 L 210 164 L 200 180 Z" fill="none" stroke="#161616" stroke-width="3" stroke-linecap="round" stroke-linejoin="round"></path></g><g><path d="M 98 212 C 86 225 87 241 105 246" fill="none" stroke="#161616" stroke-width="3" stroke-linecap="round" stroke-linejoin="round"></path></g><g><path d="M 302 212 C 314 225 313 241 295 246" fill="none" stroke="#161616" stroke-width="3" stroke-linecap="round" stroke-linejoin="round"></path></g><g><path d="M 162 315 L 162 339" fill="none" stroke="#161616" stroke-width="3" stroke-linecap="round" stroke-linejoin="round"></path></g><g><path d="M 238 315 L 238 339" fill="none" stroke="#161616" stroke-width="3" stroke-linecap="round" stroke-linejoin="round"></path></g></g></svg></g><text x="12" y="445" font-family="sans-serif" font-size="16">원본을 열어 내가 기억한 특징과 다시 볼 부</text><text x="12" y="468" font-family="sans-serif" font-size="16">분을 구별해요. 보완할 한 곳을 골라 적어요</text><text x="12" y="491" font-family="sans-serif" font-size="16">.</text></g><g transform="translate(400 1130)"><text x="12" y="22" font-family="sans-serif" font-size="16">5/5 · compare</text><g transform="translate(10 45)"><svg width="380" height="380" viewBox="0 0 400 400" class="h-full w-full" role="img" aria-label="첫 병아리 · 더 둥근 친구"><defs><marker id="arrow-_s4R_0_" markerWidth="5" markerHeight="5" refX="3.5" refY="2.5" orient="auto"><path d="M 0 0 L 5 2.5 L 0 5 Z" fill="#bd530c"></path></marker></defs><g><g><path d="M 200 74 C 122 74 69 153 74 228 C 78 294 119 317 200 317" fill="none" stroke="#161616" stroke-width="3" stroke-linecap="round" stroke-linejoin="round"></path></g><g><path d="M 200 74 C 278 74 331 153 326 228 C 322 294 281 317 200 317" fill="none" stroke="#161616" stroke-width="3" stroke-linecap="round" stroke-linejoin="round"></path></g><g><path d="M 149.5 152 A 6.5 6.5 0 1 0 162.5 152 A 6.5 6.5 0 1 0 149.5 152" fill="#161616" stroke="none" stroke-width="3" stroke-linecap="round" stroke-linejoin="round"></path></g><g><path d="M 237.5 152 A 6.5 6.5 0 1 0 250.5 152 A 6.5 6.5 0 1 0 237.5 152" fill="#161616" stroke="none" stroke-width="3" stroke-linecap="round" stroke-linejoin="round"></path></g><g><path d="M 190 164 L 210 164 L 200 180 Z" fill="none" stroke="#161616" stroke-width="3" stroke-linecap="round" stroke-linejoin="round"></path></g><g><path d="M 98 212 C 86 225 87 241 105 246" fill="none" stroke="#161616" stroke-width="3" stroke-linecap="round" stroke-linejoin="round"></path></g><g><path d="M 302 212 C 314 225 313 241 295 246" fill="none" stroke="#161616" stroke-width="3" stroke-linecap="round" stroke-linejoin="round"></path></g><g><path d="M 162 315 L 162 339" fill="none" stroke="#161616" stroke-width="3" stroke-linecap="round" stroke-linejoin="round"></path></g><g><path d="M 238 315 L 238 339" fill="none" stroke="#161616" stroke-width="3" stroke-linecap="round" stroke-linejoin="round"></path></g></g></svg></g><text x="12" y="445" font-family="sans-serif" font-size="16">한 곳만 보완하고 오늘 시도를 저장해요. 반</text><text x="12" y="468" font-family="sans-serif" font-size="16">복 횟수가 아니라 내가 확인한 내용을 남겨요</text><text x="12" y="491" font-family="sans-serif" font-size="16">.</text></g></svg>